<svg width="783" height="357" viewBox="0 0 783 357" fill="none" xmlns="http://www.w3.org/2000/svg">
<path d="M297.177 293.847C297.177 292.165 298.128 291.28 300.053 291.28C301.978 291.28 302.93 292.165 302.93 293.847V294.887C302.93 303.737 309.988 309.623 323.11 309.535C336.231 309.446 342.006 304.645 342.714 297.697C343.444 290.395 338.488 287.363 331.651 285.283L311.227 278.8C302.664 276.079 298.35 271.432 298.505 263.179C298.659 252.934 307.222 247.491 322.202 247.491C340.059 247.491 346.542 255.014 346.542 264.396V265.436C346.542 266.874 345.745 267.825 343.754 267.825C341.762 267.825 340.855 266.874 340.855 265.436V264.794C340.855 257.426 333.576 252.624 322.446 252.624C311.891 252.624 304.125 255.656 304.036 263.179C304.036 269.507 308.13 272.229 314.126 274.242L335.655 281.035C345.436 284.155 348.71 289.886 348.223 297.608C347.582 307.609 340.214 314.734 323.176 314.734C301.248 314.734 297 302.963 297 296.081L297.177 293.847Z" fill="#946045"/>
<path d="M367.931 289.134V272.959C367.931 255.014 381.938 247.425 396.497 247.425C411.056 247.425 425.151 255.014 425.151 272.959V289.134C425.151 306.968 411.145 314.734 396.497 314.734C381.849 314.734 367.931 306.968 367.931 289.134ZM419.465 287.85V274.309C419.465 257.581 406.83 252.868 396.497 252.868C386.164 252.868 373.596 257.581 373.596 274.309V287.85C373.596 304.578 386.164 309.291 396.497 309.291C406.83 309.291 419.465 304.578 419.465 287.85Z" fill="#946045"/>
<path d="M446.837 250.943C446.837 248.531 447.966 247.491 450.201 247.491C452.435 247.491 453.077 248.066 453.962 250.146L478.147 304.888L502.353 250.146C503.238 248.133 504.123 247.491 506.026 247.491C506.497 247.415 506.979 247.451 507.432 247.598C507.886 247.744 508.298 247.997 508.635 248.334C508.973 248.671 509.225 249.083 509.371 249.537C509.518 249.99 509.554 250.472 509.478 250.943V312.101C509.478 313.849 508.593 314.734 506.668 314.734C504.743 314.734 503.88 313.849 503.88 312.101V278.911C503.88 272.428 503.88 264.905 504.588 258.754H504.278L481.532 310.707C481.299 311.385 480.839 311.962 480.231 312.34C479.622 312.719 478.902 312.877 478.191 312.787C477.48 312.858 476.765 312.693 476.157 312.317C475.549 311.941 475.082 311.375 474.828 310.707L452.037 258.709H451.727C452.369 264.861 452.435 272.384 452.435 278.867V312.057C452.435 313.805 451.55 314.69 449.647 314.69C447.745 314.69 446.837 313.805 446.837 312.057V250.943Z" fill="#946045"/>
<path d="M533.333 312.014V250.059C533.333 248.2 534.063 247.404 536.143 247.404C538.223 247.404 538.953 248.2 538.953 250.059V312.014C538.953 313.85 538.311 314.735 536.143 314.735C533.974 314.735 533.333 313.85 533.333 312.014Z" fill="#946045"/>
<path d="M562.717 252.537C562.717 249.66 563.934 248.288 567.142 248.288H589.269C604.47 248.288 613.033 256.387 613.033 273.27V289.135C613.033 305.287 604.647 313.85 589.269 313.85H567.142C563.956 313.85 562.717 312.5 562.717 309.624V252.537ZM568.492 308.496H589.225C598.983 308.496 607.236 303.606 607.236 287.608V274.796C607.236 258.068 598.983 253.754 589.225 253.754H568.492V308.496Z" fill="#946045"/>
<path d="M686.937 311.216C687.756 312.986 687.114 314.026 685.101 314.579C683.087 315.133 682.224 314.336 681.494 312.588L675.099 297.365H641.4L634.762 313.451C634.209 314.823 633.014 315.132 631.156 314.336C630.817 314.241 630.505 314.072 630.241 313.841C629.977 313.61 629.768 313.322 629.63 312.999C629.492 312.676 629.428 312.327 629.443 311.976C629.458 311.625 629.552 311.282 629.717 310.973L655.583 249.748C656.225 248.066 656.69 247.535 658.46 247.535C660.23 247.535 660.673 248.111 661.336 249.748L686.937 311.216ZM643.635 292.01H672.864L665.164 273.601C663.416 269.352 660.606 262.714 658.526 257.183H658.305C656.225 262.714 653.349 269.352 651.49 273.601L643.635 292.01Z" fill="#946045"/>
<path d="M706.231 250.943C706.231 248.531 707.36 247.491 709.594 247.491C711.829 247.491 712.471 248.066 713.356 250.146L737.54 304.888L761.703 250.146C762.588 248.133 763.473 247.491 765.376 247.491C765.847 247.415 766.329 247.451 766.782 247.598C767.236 247.744 767.648 247.997 767.985 248.334C768.322 248.671 768.575 249.083 768.721 249.537C768.868 249.99 768.904 250.472 768.828 250.943V312.101C768.828 313.849 767.943 314.734 766.018 314.734C764.093 314.734 763.23 313.849 763.23 312.101V278.911C763.23 272.428 763.23 264.905 763.938 258.754H763.628L740.882 310.663C740.648 311.341 740.189 311.917 739.58 312.296C738.972 312.675 738.252 312.833 737.54 312.743C736.827 312.811 736.11 312.645 735.499 312.27C734.888 311.895 734.417 311.331 734.155 310.663L711.431 258.709H711.121C711.763 264.861 711.829 272.384 711.829 278.867V312.057C711.829 313.805 710.944 314.69 709.041 314.69C707.138 314.69 706.231 313.805 706.231 312.057V250.943Z" fill="#946045"/>
<path d="M410.874 156.041C414.724 156.041 416.428 158.033 416.428 162.679C416.428 167.326 414.724 169.318 410.874 169.318H294.687C290.859 169.318 289 167.326 289 162.679C289 158.033 290.859 156.041 294.687 156.041H345.578V125.351C345.578 121.081 347.791 119.09 352.703 119.09C357.615 119.09 359.806 121.081 359.806 125.351V156.041H410.874ZM305.949 121.435C301.524 123.869 298.957 124.002 295.97 119.864C292.983 115.726 293.27 112.186 296.966 110.062L345.534 82.2926V48.7705C345.534 44.5 347.747 42.6413 352.637 42.6413C357.527 42.6413 359.761 44.5 359.761 48.7705V82.2263L408.44 109.995C412.135 112.208 412.268 115.682 409.281 119.798C406.294 123.913 403.727 123.803 399.324 121.369L352.681 94.4623L305.949 121.435Z" fill="#946045"/>
<path d="M552.949 162.105C552.949 166.795 550.737 168.743 546.112 168.743H480.617C476.059 168.743 473.78 166.884 473.78 162.105V52.4664C473.78 47.7755 475.993 45.8283 480.617 45.8283H546.112C550.67 45.8283 552.949 47.8197 552.949 52.4664V162.105ZM488.007 155.843H538.899V58.684H488.007V155.843ZM575.01 166.508V48.3287C575.01 44.0582 577.422 42.0668 582.267 42.0668C587.113 42.0668 589.392 44.0582 589.392 48.3287V166.508C589.392 170.933 586.958 172.77 582.267 172.77C577.577 172.77 575.01 170.933 575.01 166.508Z" fill="#946045"/>
<path d="M725.338 110.283H660.838C656.413 110.283 654.2 108.27 654.2 104.154V52.8863C654.2 48.3282 656.413 46.2483 660.838 46.2483H722.351C726.046 46.2483 727.904 48.2397 727.904 52.8863C727.904 57.533 726.046 59.5244 722.351 59.5244H668.538V97.4054H725.338C729.188 97.4054 731.024 99.618 731.024 104.043C731.024 108.469 729.188 110.283 725.338 110.283ZM757.09 121.347C761.935 121.347 763.728 123.205 763.728 127.985V166.22C763.728 170.778 761.891 172.858 757.333 172.858H668.096C663.67 172.858 661.701 170.866 661.701 166.22V128.073C661.701 123.227 663.693 121.435 668.538 121.435L757.09 121.347ZM749.965 160.068V134.047H675.508V160.091L749.965 160.068ZM777.291 70.809C781.296 70.809 783 73.0216 783 77.447C783 81.8723 781.296 84.2842 777.291 84.2842H763.772V109.642C763.772 113.912 761.559 115.748 756.669 115.748C751.779 115.748 749.544 113.912 749.544 109.642V48.129C749.544 43.8586 752.111 42 756.669 42C761.227 42 763.772 43.8586 763.772 48.129V70.7648L777.291 70.809Z" fill="#946045"/>
<path d="M200.39 48.8901C200.542 48.8143 200.677 48.7075 200.785 48.5767C200.894 48.4458 200.974 48.2937 201.02 48.1301C201.073 47.965 201.09 47.7907 201.071 47.6184C201.052 47.4462 200.997 47.2798 200.91 47.1301C200.074 45.6138 198.941 44.2808 197.58 43.2101C196.297 42.2252 194.775 41.6004 193.17 41.4001C191.45 41.2053 189.708 41.3792 188.06 41.9101C187.885 41.9625 187.724 42.0536 187.589 42.1765C187.454 42.2993 187.349 42.4509 187.28 42.6201C187.209 42.7772 187.172 42.9476 187.172 43.1201C187.172 43.2926 187.209 43.463 187.28 43.6201C188.066 45.1505 189.183 46.4863 190.55 47.5301C191.9 48.6531 193.537 49.3757 195.276 49.6161C197.015 49.8564 198.786 49.6049 200.39 48.8901Z" fill="#946045"/>
<path d="M200.39 48.8901C200.542 48.8143 200.677 48.7075 200.785 48.5767C200.894 48.4458 200.974 48.2937 201.02 48.1301C201.073 47.965 201.09 47.7907 201.071 47.6184C201.052 47.4462 200.997 47.2798 200.91 47.1301C200.074 45.6138 198.941 44.2808 197.58 43.2101C196.297 42.2252 194.775 41.6004 193.17 41.4001C191.45 41.2053 189.708 41.3792 188.06 41.9101C187.885 41.9625 187.724 42.0536 187.589 42.1765C187.454 42.2993 187.349 42.4509 187.28 42.6201C187.209 42.7772 187.172 42.9476 187.172 43.1201C187.172 43.2926 187.209 43.463 187.28 43.6201C188.066 45.1505 189.183 46.4863 190.55 47.5301C191.9 48.6531 193.537 49.3757 195.276 49.6161C197.015 49.8564 198.786 49.6049 200.39 48.8901Z" stroke="#946045"/>
<path d="M206 59.2101C206.15 59.1334 206.284 59.0271 206.392 58.8975C206.5 58.768 206.581 58.6178 206.63 58.4562C206.678 58.2945 206.694 58.1247 206.675 57.9569C206.656 57.7891 206.603 57.6269 206.52 57.4801C205.684 55.9637 204.551 54.6308 203.19 53.5601C201.905 52.5789 200.384 51.9545 198.78 51.7501C197.06 51.5601 195.319 51.7339 193.67 52.2601C193.496 52.3156 193.335 52.4076 193.199 52.53C193.062 52.6524 192.954 52.8024 192.88 52.9701C192.803 53.1344 192.763 53.3137 192.763 53.4951C192.763 53.6765 192.803 53.8557 192.88 54.0201C193.666 55.5532 194.787 56.8896 196.16 57.9301C197.517 59.0421 199.158 59.7515 200.897 59.9778C202.636 60.204 204.404 59.9381 206 59.2101Z" fill="#946045"/>
<path d="M206 59.2101C206.15 59.1334 206.284 59.0271 206.392 58.8975C206.5 58.768 206.581 58.6178 206.63 58.4562C206.678 58.2945 206.694 58.1247 206.675 57.9569C206.656 57.7891 206.603 57.6269 206.52 57.4801C205.684 55.9637 204.551 54.6308 203.19 53.5601C201.905 52.5789 200.384 51.9545 198.78 51.7501C197.06 51.5601 195.319 51.7339 193.67 52.2601C193.496 52.3156 193.335 52.4076 193.199 52.53C193.062 52.6524 192.954 52.8024 192.88 52.9701C192.803 53.1344 192.763 53.3137 192.763 53.4951C192.763 53.6765 192.803 53.8557 192.88 54.0201C193.666 55.5532 194.787 56.8896 196.16 57.9301C197.517 59.0421 199.158 59.7515 200.897 59.9778C202.636 60.204 204.404 59.9381 206 59.2101Z" stroke="#946045"/>
<path d="M210.75 69.2101C210.902 69.1364 211.036 69.0315 211.145 68.9022C211.254 68.773 211.334 68.6223 211.38 68.4601C211.433 68.2949 211.45 68.1206 211.431 67.9484C211.412 67.7762 211.357 67.6098 211.27 67.4601C210.434 65.9463 209.306 64.6138 207.95 63.5401C206.66 62.5606 205.136 61.9365 203.53 61.7301C201.813 61.5352 200.074 61.709 198.43 62.24C198.254 62.293 198.093 62.384 197.956 62.5066C197.819 62.6291 197.712 62.7802 197.64 62.9492C197.568 63.1181 197.535 63.3007 197.542 63.4841C197.549 63.6674 197.596 63.847 197.68 64.0101C198.468 65.5359 199.585 66.8679 200.95 67.91C202.301 69.0177 203.933 69.7262 205.665 69.9559C207.396 70.1856 209.157 69.9273 210.75 69.2101Z" fill="#946045"/>
<path d="M210.75 69.2101C210.902 69.1364 211.036 69.0315 211.145 68.9022C211.254 68.773 211.334 68.6223 211.38 68.4601C211.433 68.2949 211.45 68.1206 211.431 67.9484C211.412 67.7762 211.357 67.6098 211.27 67.4601C210.434 65.9463 209.306 64.6138 207.95 63.5401C206.66 62.5606 205.136 61.9365 203.53 61.7301C201.813 61.5352 200.074 61.709 198.43 62.24C198.254 62.293 198.093 62.384 197.956 62.5066C197.819 62.6291 197.712 62.7802 197.64 62.9492C197.568 63.1181 197.535 63.3007 197.542 63.4841C197.549 63.6674 197.596 63.847 197.68 64.0101C198.468 65.5359 199.585 66.8679 200.95 67.91C202.301 69.0177 203.933 69.7262 205.665 69.9559C207.396 70.1856 209.157 69.9273 210.75 69.2101Z" stroke="#946045"/>
<path d="M216.87 78.5101C217.01 78.4132 217.128 78.2886 217.217 78.1441C217.307 77.9996 217.366 77.8382 217.39 77.6701C217.42 77.4945 217.413 77.3144 217.368 77.1419C217.323 76.9695 217.242 76.8086 217.13 76.6701C216.405 75.7531 215.573 74.9271 214.65 74.2101C213.153 73.0435 211.343 72.3475 209.45 72.2101C207.456 72.1367 205.475 72.5666 203.69 73.4601C203.525 73.541 203.379 73.6559 203.262 73.7972C203.145 73.9385 203.059 74.1031 203.01 74.2801C202.973 74.4516 202.972 74.6288 203.006 74.8008C203.041 74.9729 203.11 75.136 203.21 75.2801C203.888 76.2172 204.7 77.0494 205.62 77.7501C209.04 80.4101 213.65 80.7901 216.87 78.5101Z" fill="#946045"/>
<path d="M216.87 78.5101C217.01 78.4132 217.128 78.2886 217.217 78.1441C217.307 77.9996 217.366 77.8382 217.39 77.6701C217.42 77.4945 217.413 77.3144 217.368 77.1419C217.323 76.9695 217.242 76.8086 217.13 76.6701C216.405 75.7531 215.573 74.9271 214.65 74.2101C213.153 73.0435 211.343 72.3475 209.45 72.2101C207.456 72.1367 205.475 72.5666 203.69 73.4601C203.525 73.541 203.379 73.6559 203.262 73.7972C203.145 73.9385 203.059 74.1031 203.01 74.2801C202.973 74.4516 202.972 74.6288 203.006 74.8008C203.041 74.9729 203.11 75.136 203.21 75.2801C203.888 76.2172 204.7 77.0494 205.62 77.7501C209.04 80.4101 213.65 80.7901 216.87 78.5101Z" stroke="#946045"/>
<path d="M219.95 88.5101C220.09 88.4123 220.208 88.2868 220.297 88.1413C220.386 87.9958 220.444 87.8335 220.467 87.6646C220.491 87.4956 220.479 87.3237 220.433 87.1594C220.387 86.9952 220.308 86.8422 220.2 86.7101C219.46 85.7713 218.603 84.9311 217.65 84.2101C216.154 83.0347 214.338 82.3377 212.44 82.2101C210.448 82.1283 208.468 82.5587 206.69 83.4601C206.524 83.5372 206.378 83.6497 206.26 83.7896C206.143 83.9296 206.057 84.0936 206.01 84.2701C205.965 84.4491 205.96 84.6358 205.994 84.8171C206.029 84.9985 206.102 85.1701 206.21 85.3201C206.885 86.2508 207.693 87.0764 208.61 87.7701C212.11 90.4001 216.7 90.7901 219.95 88.5101Z" fill="#946045"/>
<path d="M219.95 88.5101C220.09 88.4123 220.208 88.2868 220.297 88.1413C220.386 87.9958 220.444 87.8335 220.467 87.6646C220.491 87.4956 220.479 87.3237 220.433 87.1594C220.387 86.9952 220.308 86.8422 220.2 86.7101C219.46 85.7713 218.603 84.9311 217.65 84.2101C216.154 83.0347 214.338 82.3377 212.44 82.2101C210.448 82.1283 208.468 82.5587 206.69 83.4601C206.524 83.5372 206.378 83.6497 206.26 83.7896C206.143 83.9296 206.057 84.0936 206.01 84.2701C205.965 84.4491 205.96 84.6358 205.994 84.8171C206.029 84.9985 206.102 85.1701 206.21 85.3201C206.885 86.2508 207.693 87.0764 208.61 87.7701C212.11 90.4001 216.7 90.7901 219.95 88.5101Z" stroke="#946045"/>
<path d="M222.65 94.4801C221.158 93.3049 219.345 92.6078 217.45 92.4801C215.455 92.4019 213.473 92.8321 211.69 93.7301C211.525 93.81 211.38 93.9247 211.265 94.0663C211.149 94.2079 211.065 94.373 211.02 94.5501C210.982 94.7209 210.979 94.8978 211.011 95.0698C211.044 95.2418 211.112 95.4053 211.21 95.5501C211.885 96.4864 212.698 97.3157 213.62 98.0101C217.08 100.63 221.67 101.01 224.92 98.7301C225.057 98.6318 225.173 98.5067 225.261 98.3623C225.349 98.218 225.406 98.0573 225.43 97.8901C225.463 97.7146 225.457 97.5339 225.412 97.361C225.367 97.1881 225.284 97.0273 225.17 96.8901C224.433 95.986 223.586 95.1765 222.65 94.4801Z" fill="#946045"/>
<path d="M222.65 94.4801C221.158 93.3049 219.345 92.6078 217.45 92.4801C215.455 92.4019 213.473 92.8321 211.69 93.7301C211.525 93.81 211.38 93.9247 211.265 94.0663C211.149 94.2079 211.065 94.373 211.02 94.5501C210.982 94.7209 210.979 94.8978 211.011 95.0698C211.044 95.2418 211.112 95.4053 211.21 95.5501C211.885 96.4864 212.698 97.3157 213.62 98.0101C217.08 100.63 221.67 101.01 224.92 98.7301C225.057 98.6318 225.173 98.5067 225.261 98.3623C225.349 98.218 225.406 98.0573 225.43 97.8901C225.463 97.7146 225.457 97.5339 225.412 97.361C225.367 97.1881 225.284 97.0273 225.17 96.8901C224.433 95.986 223.586 95.1765 222.65 94.4801Z" stroke="#946045"/>
<path d="M206.75 42.5301C206.929 42.5538 207.111 42.5383 207.284 42.4848C207.457 42.4313 207.616 42.341 207.75 42.2201C208.584 41.4756 209.347 40.6554 210.03 39.7701C211.111 38.3697 211.869 36.7477 212.25 35.0201C212.63 33.105 212.548 31.127 212.01 29.2501C211.966 29.0761 211.884 28.9141 211.77 28.7758C211.656 28.6374 211.512 28.5262 211.35 28.4501C211.192 28.3807 211.022 28.3448 210.85 28.3448C210.678 28.3448 210.508 28.3807 210.35 28.4501C208.71 29.1715 207.276 30.2922 206.18 31.7101C205.031 33.1717 204.386 34.9664 204.343 36.8251C204.3 38.6838 204.86 40.5065 205.94 42.0201C206.035 42.1541 206.155 42.2682 206.294 42.3557C206.433 42.4432 206.588 42.5024 206.75 42.5301Z" fill="#946045"/>
<path d="M206.75 42.5301C206.929 42.5538 207.111 42.5383 207.284 42.4848C207.457 42.4313 207.616 42.341 207.75 42.2201C208.584 41.4756 209.347 40.6554 210.03 39.7701C211.111 38.3697 211.869 36.7477 212.25 35.0201C212.63 33.105 212.548 31.127 212.01 29.2501C211.966 29.0761 211.884 28.9141 211.77 28.7758C211.656 28.6374 211.512 28.5262 211.35 28.4501C211.192 28.3807 211.022 28.3448 210.85 28.3448C210.678 28.3448 210.508 28.3807 210.35 28.4501C208.71 29.1715 207.276 30.2922 206.18 31.7101C205.031 33.1717 204.386 34.9664 204.343 36.8251C204.3 38.6838 204.86 40.5065 205.94 42.0201C206.035 42.1541 206.155 42.2682 206.294 42.3557C206.433 42.4432 206.588 42.5024 206.75 42.5301Z" stroke="#946045"/>
<path d="M211.51 42.3701C210.404 43.8107 209.765 45.5556 209.68 47.3701C209.61 49.2702 210.168 51.1403 211.27 52.6901C211.371 52.8353 211.502 52.9575 211.654 53.0488C211.805 53.1402 211.974 53.1985 212.15 53.2201C212.33 53.2425 212.513 53.2254 212.685 53.1702C212.858 53.1149 213.017 53.0228 213.15 52.9001C213.981 52.1587 214.74 51.3419 215.42 50.4601C216.508 49.0628 217.27 47.4398 217.65 45.7101C218.025 43.7913 217.943 41.8112 217.41 39.9301C217.363 39.7575 217.28 39.597 217.166 39.459C217.052 39.3211 216.911 39.209 216.75 39.1301C216.586 39.0533 216.406 39.0135 216.225 39.0135C216.044 39.0135 215.864 39.0533 215.7 39.1301C214.053 39.8404 212.612 40.9548 211.51 42.3701Z" fill="#946045"/>
<path d="M211.51 42.3701C210.404 43.8107 209.765 45.5556 209.68 47.3701C209.61 49.2702 210.168 51.1403 211.27 52.6901C211.371 52.8353 211.502 52.9575 211.654 53.0488C211.805 53.1402 211.974 53.1985 212.15 53.2201C212.33 53.2425 212.513 53.2254 212.685 53.1702C212.858 53.1149 213.017 53.0228 213.15 52.9001C213.981 52.1587 214.74 51.3419 215.42 50.4601C216.508 49.0628 217.27 47.4398 217.65 45.7101C218.025 43.7913 217.943 41.8112 217.41 39.9301C217.363 39.7575 217.28 39.597 217.166 39.459C217.052 39.3211 216.911 39.209 216.75 39.1301C216.586 39.0533 216.406 39.0135 216.225 39.0135C216.044 39.0135 215.864 39.0533 215.7 39.1301C214.053 39.8404 212.612 40.9548 211.51 42.3701Z" stroke="#946045"/>
<path d="M215.65 58.2101C215.59 60.1103 216.152 61.9783 217.25 63.5301C217.351 63.6756 217.482 63.7981 217.633 63.8893C217.785 63.9805 217.955 64.0384 218.13 64.0592C218.306 64.08 218.485 64.0632 218.653 64.0099C218.822 63.9566 218.978 63.8681 219.11 63.7501C219.943 63.0079 220.703 62.1875 221.38 61.3001C222.472 59.9051 223.234 58.2813 223.61 56.5501C223.99 54.635 223.908 52.657 223.37 50.7801C223.325 50.6055 223.243 50.4426 223.129 50.3028C223.015 50.163 222.872 50.0495 222.71 49.9701C222.552 49.903 222.382 49.8684 222.21 49.8684C222.038 49.8684 221.868 49.903 221.71 49.9701C220.07 50.6922 218.637 51.8129 217.54 53.2301C216.418 54.6592 215.759 56.3965 215.65 58.2101Z" fill="#946045"/>
<path d="M215.65 58.2101C215.59 60.1103 216.152 61.9783 217.25 63.5301C217.351 63.6756 217.482 63.7981 217.633 63.8893C217.785 63.9805 217.955 64.0384 218.13 64.0592C218.306 64.08 218.485 64.0632 218.653 64.0099C218.822 63.9566 218.978 63.8681 219.11 63.7501C219.943 63.0079 220.703 62.1875 221.38 61.3001C222.472 59.9051 223.234 58.2813 223.61 56.5501C223.99 54.635 223.908 52.657 223.37 50.7801C223.325 50.6055 223.243 50.4426 223.129 50.3028C223.015 50.163 222.872 50.0495 222.71 49.9701C222.552 49.903 222.382 49.8684 222.21 49.8684C222.038 49.8684 221.868 49.903 221.71 49.9701C220.07 50.6922 218.637 51.8129 217.54 53.2301C216.418 54.6592 215.759 56.3965 215.65 58.2101Z" stroke="#946045"/>
<path d="M222.56 64.4801C221.575 65.761 220.974 67.2955 220.827 68.9047C220.68 70.514 220.993 72.1319 221.73 73.5701C221.808 73.728 221.919 73.8676 222.055 73.9796C222.192 74.0916 222.35 74.1736 222.52 74.2201C222.689 74.2659 222.865 74.2754 223.037 74.2478C223.21 74.2202 223.374 74.1562 223.52 74.0601C225.022 73.1 226.35 71.893 227.45 70.4901C228.368 69.2697 229.036 67.88 229.415 66.4006C229.795 64.9213 229.878 63.3817 229.66 61.8701C229.64 61.6915 229.581 61.5194 229.488 61.3657C229.395 61.212 229.269 61.0804 229.12 60.9801C228.975 60.8817 228.811 60.8156 228.639 60.7862C228.466 60.7569 228.289 60.765 228.12 60.8101C225.915 61.3914 223.961 62.6807 222.56 64.4801Z" fill="#946045"/>
<path d="M222.56 64.4801C221.575 65.761 220.974 67.2955 220.827 68.9047C220.68 70.514 220.993 72.1319 221.73 73.5701C221.808 73.728 221.919 73.8676 222.055 73.9796C222.192 74.0916 222.35 74.1736 222.52 74.2201C222.689 74.2659 222.865 74.2754 223.037 74.2478C223.21 74.2202 223.374 74.1562 223.52 74.0601C225.022 73.1 226.35 71.893 227.45 70.4901C228.368 69.2697 229.036 67.88 229.415 66.4006C229.795 64.9213 229.878 63.3817 229.66 61.8701C229.64 61.6915 229.581 61.5194 229.488 61.3657C229.395 61.212 229.269 61.0804 229.12 60.9801C228.975 60.8817 228.811 60.8156 228.639 60.7862C228.466 60.7569 228.289 60.765 228.12 60.8101C225.915 61.3914 223.961 62.6807 222.56 64.4801Z" stroke="#946045"/>
<path d="M226.49 74.2101C225.503 75.4921 224.901 77.0283 224.754 78.6396C224.607 80.2509 224.921 81.8707 225.66 83.3101C225.736 83.4701 225.846 83.6117 225.982 83.7253C226.118 83.8389 226.277 83.9218 226.448 83.9683C226.618 84.0148 226.797 84.0239 226.972 83.9948C227.147 83.9658 227.313 83.8994 227.46 83.8001C228.967 82.8428 230.299 81.6355 231.4 80.2301C232.317 79.009 232.984 77.6191 233.363 76.14C233.742 74.661 233.826 73.1217 233.61 71.6101C233.591 71.4297 233.532 71.2556 233.439 71.1003C233.345 70.9449 233.218 70.812 233.068 70.7109C232.917 70.6098 232.746 70.543 232.567 70.5152C232.387 70.4875 232.204 70.4994 232.03 70.5501C229.834 71.1334 227.888 72.4186 226.49 74.2101Z" fill="#946045"/>
<path d="M226.49 74.2101C225.503 75.4921 224.901 77.0283 224.754 78.6396C224.607 80.2509 224.921 81.8707 225.66 83.3101C225.736 83.4701 225.846 83.6117 225.982 83.7253C226.118 83.8389 226.277 83.9218 226.448 83.9683C226.618 84.0148 226.797 84.0239 226.972 83.9948C227.147 83.9658 227.313 83.8994 227.46 83.8001C228.967 82.8428 230.299 81.6355 231.4 80.2301C232.317 79.009 232.984 77.6191 233.363 76.14C233.742 74.661 233.826 73.1217 233.61 71.6101C233.591 71.4297 233.532 71.2556 233.439 71.1003C233.345 70.9449 233.218 70.812 233.068 70.7109C232.917 70.6098 232.746 70.543 232.567 70.5152C232.387 70.4875 232.204 70.4994 232.03 70.5501C229.834 71.1334 227.888 72.4186 226.49 74.2101Z" stroke="#946045"/>
<path d="M230.22 83.8701C229.237 85.1541 228.638 86.69 228.491 88.3002C228.344 89.9105 228.656 91.5295 229.39 92.9701C229.468 93.128 229.579 93.2676 229.715 93.3796C229.852 93.4916 230.01 93.5736 230.18 93.6201C230.349 93.6634 230.525 93.6716 230.697 93.6441C230.869 93.6166 231.033 93.5539 231.18 93.4601C232.685 92.4998 234.016 91.2929 235.12 89.8901C236.038 88.6697 236.706 87.28 237.085 85.8007C237.465 84.3213 237.548 82.7816 237.33 81.2701C237.31 81.0901 237.251 80.9165 237.158 80.7612C237.065 80.6059 236.939 80.4725 236.79 80.3701C236.643 80.2757 236.479 80.2119 236.307 80.1827C236.136 80.1535 235.96 80.1594 235.79 80.2001C233.583 80.7828 231.626 82.0717 230.22 83.8701Z" fill="#946045"/>
<path d="M230.22 83.8701C229.237 85.1541 228.638 86.69 228.491 88.3002C228.344 89.9105 228.656 91.5295 229.39 92.9701C229.468 93.128 229.579 93.2676 229.715 93.3796C229.852 93.4916 230.01 93.5736 230.18 93.6201C230.349 93.6634 230.525 93.6716 230.697 93.6441C230.869 93.6166 231.033 93.5539 231.18 93.4601C232.685 92.4998 234.016 91.2929 235.12 89.8901C236.038 88.6697 236.706 87.28 237.085 85.8007C237.465 84.3213 237.548 82.7816 237.33 81.2701C237.31 81.0901 237.251 80.9165 237.158 80.7612C237.065 80.6059 236.939 80.4725 236.79 80.3701C236.643 80.2757 236.479 80.2119 236.307 80.1827C236.136 80.1535 235.96 80.1594 235.79 80.2001C233.583 80.7828 231.626 82.0717 230.22 83.8701Z" stroke="#946045"/>
<path d="M201.65 40.4801C201.462 40.1752 201.161 39.9569 200.813 39.8726C200.464 39.7883 200.097 39.845 199.79 40.0301C199.486 40.2164 199.268 40.5156 199.183 40.8623C199.099 41.2089 199.155 41.5749 199.34 41.8801C199.34 41.8801 199.81 42.6701 200.68 44.1701C201.364 45.3527 202.214 46.7561 203.195 48.3769C210.916 61.1333 226.79 87.3599 234.5 125.45C234.59 125.781 234.803 126.066 235.095 126.246C235.387 126.426 235.737 126.488 236.074 126.42C236.41 126.351 236.707 126.156 236.906 125.876C237.104 125.596 237.188 125.25 237.14 124.91C227.433 77.3316 203.787 43.5365 201.785 40.6766C201.696 40.5491 201.65 40.4831 201.65 40.4801Z" fill="#946045"/>
<path d="M201.65 40.4801C201.462 40.1752 201.161 39.9569 200.813 39.8726C200.464 39.7883 200.097 39.845 199.79 40.0301C199.486 40.2164 199.268 40.5156 199.183 40.8623C199.099 41.2089 199.155 41.5749 199.34 41.8801C199.34 41.8801 199.81 42.6701 200.68 44.1701C201.364 45.3527 202.214 46.7561 203.195 48.3769C210.916 61.1333 226.79 87.3599 234.5 125.45C234.59 125.781 234.803 126.066 235.095 126.246C235.387 126.426 235.737 126.488 236.074 126.42C236.41 126.351 236.707 126.156 236.906 125.876C237.104 125.596 237.188 125.25 237.14 124.91C227.433 77.3316 203.787 43.5365 201.785 40.6766C201.696 40.5491 201.65 40.4831 201.65 40.4801Z" stroke="#946045"/>
<mask id="mask0_1_54" style="mask-type:luminance" maskUnits="userSpaceOnUse" x="2" y="2" width="239" height="353">
<path d="M184.17 20.3001C166.146 9.1338 145.465 2.98608 124.268 2.4929C103.071 1.99971 82.1268 7.17897 63.6026 17.4949C45.0784 27.8108 29.6468 42.8887 18.9043 61.1688C8.16171 79.4488 2.49833 100.267 2.5 121.47V235.47C2.5 267.031 15.0374 297.299 37.3543 319.616C59.6711 341.933 89.9392 354.47 121.5 354.47C153.061 354.47 183.329 341.933 205.646 319.616C227.963 297.299 240.5 267.031 240.5 235.47V150.14" fill="white"/>
</mask>
<g mask="url(#mask0_1_54)">
<mask id="mask1_1_54" style="mask-type:luminance" maskUnits="userSpaceOnUse" x="103" y="189" width="269" height="112">
<path d="M103.22 256.53C103.22 256.53 145.65 275.95 194.13 300.92L371.65 293.45L367.78 189.52L195.69 192.52L103.22 256.53Z" fill="white"/>
<path d="M103.22 256.53C103.22 256.53 145.65 275.95 194.13 300.92L371.65 293.45L367.78 189.52L195.69 192.52L103.22 256.53Z" stroke="white"/>
</mask>
<g mask="url(#mask1_1_54)">
<path d="M446.415 289.481L461.34 234.67C461.401 234.448 461.417 234.216 461.388 233.988C461.359 233.76 461.285 233.54 461.171 233.34C461.056 233.14 460.904 232.965 460.722 232.824C460.54 232.684 460.332 232.58 460.11 232.52C418.557 221.295 375.692 215.662 332.65 215.77C311.722 215.789 290.813 217.028 270.03 219.48C217.65 225.6 164.01 239.31 110.47 260.21C19.5899 295.68 -39.3901 339.45 -41.9301 341.36C-42.3028 341.637 -42.5508 342.051 -42.6201 342.51C-42.6796 342.97 -42.5616 343.435 -42.2901 343.81L-8.23007 389.3C-8.09293 389.485 -7.92072 389.64 -7.72333 389.758C-7.52594 389.876 -7.30722 389.954 -7.07968 389.988C-6.85214 390.021 -6.62025 390.01 -6.39725 389.953C-6.17425 389.897 -5.96452 389.797 -5.78006 389.66C-5.38006 389.35 4.48994 382.09 21.9099 371.38C74.1999 339.21 194.65 276.13 333.07 276.15C370.633 276.037 408.043 280.937 444.31 290.72C444.755 290.841 445.23 290.779 445.63 290.55C446.031 290.317 446.325 289.937 446.45 289.49L446.415 289.481ZM443.503 286.878C407.476 277.321 370.348 272.537 333.07 272.65C240.07 272.65 155.35 300.87 93.6099 329.23C68.3424 340.812 43.7888 353.892 20.0799 368.4C5.95387 377.079 -3.23064 383.511 -6.55267 385.88L-38.5536 343.118C-28.8294 336.047 27.7733 296.189 111.61 263.47C164.9 242.67 218.28 229.04 270.27 222.95C290.974 220.511 311.803 219.283 332.65 219.27C374.802 219.157 416.784 224.588 457.515 235.42L443.503 286.878Z" fill="#946045"/>
<path d="M446.415 289.481L461.34 234.67C461.401 234.448 461.417 234.216 461.388 233.988C461.359 233.76 461.285 233.54 461.171 233.34C461.056 233.14 460.904 232.965 460.722 232.824C460.54 232.684 460.332 232.58 460.11 232.52C418.557 221.295 375.692 215.662 332.65 215.77C311.722 215.789 290.813 217.028 270.03 219.48C217.65 225.6 164.01 239.31 110.47 260.21C19.5899 295.68 -39.3901 339.45 -41.9301 341.36C-42.3028 341.637 -42.5508 342.051 -42.6201 342.51C-42.6796 342.97 -42.5616 343.435 -42.2901 343.81L-8.23007 389.3C-8.09293 389.485 -7.92072 389.64 -7.72333 389.758C-7.52594 389.876 -7.30722 389.954 -7.07968 389.988C-6.85214 390.021 -6.62025 390.01 -6.39725 389.953C-6.17425 389.897 -5.96452 389.797 -5.78006 389.66C-5.38006 389.35 4.48994 382.09 21.9099 371.38C74.1999 339.21 194.65 276.13 333.07 276.15C370.633 276.037 408.043 280.937 444.31 290.72C444.755 290.841 445.23 290.779 445.63 290.55C446.031 290.317 446.325 289.937 446.45 289.49L446.415 289.481ZM443.503 286.878C407.476 277.321 370.348 272.537 333.07 272.65C240.07 272.65 155.35 300.87 93.6099 329.23C68.3424 340.812 43.7888 353.892 20.0799 368.4C5.95387 377.079 -3.23064 383.511 -6.55267 385.88L-38.5536 343.118C-28.8294 336.047 27.7733 296.189 111.61 263.47C164.9 242.67 218.28 229.04 270.27 222.95C290.974 220.511 311.803 219.283 332.65 219.27C374.802 219.157 416.784 224.588 457.515 235.42L443.503 286.878Z" stroke="#946045"/>
<path d="M-22.81 366.91L-22.3601 366.58C-17.6501 363.12 23.6399 333.37 87.4699 304.51C151.3 275.65 237.74 247.67 332.74 247.67C372.925 247.569 412.944 252.825 451.74 263.3C451.966 263.377 452.206 263.407 452.444 263.388C452.682 263.369 452.914 263.301 453.125 263.189C453.336 263.077 453.522 262.923 453.671 262.737C453.82 262.55 453.929 262.335 453.992 262.104C454.055 261.874 454.07 261.633 454.037 261.396C454.003 261.16 453.921 260.933 453.796 260.729C453.671 260.525 453.506 260.349 453.311 260.212C453.115 260.075 452.894 259.979 452.66 259.93C413.564 249.379 373.235 244.092 332.74 244.21C233.96 244.21 144.59 274.21 79.8899 304.21C15.1899 334.21 -24.84 364.14 -24.9 364.21C-25.0991 364.341 -25.2693 364.512 -25.4001 364.711C-25.531 364.91 -25.6197 365.134 -25.6608 365.369C-25.702 365.604 -25.6947 365.845 -25.6394 366.077C-25.5842 366.309 -25.4821 366.527 -25.3395 366.718C-25.1968 366.909 -25.0167 367.069 -24.81 367.188C-24.6034 367.307 -24.3746 367.382 -24.1377 367.41C-23.9009 367.437 -23.661 367.416 -23.4326 367.347C-23.2043 367.278 -22.9925 367.164 -22.81 367.01V366.91Z" fill="#946045"/>
<path d="M-22.81 366.91L-22.3601 366.58C-17.6501 363.12 23.6399 333.37 87.4699 304.51C151.3 275.65 237.74 247.67 332.74 247.67C372.925 247.569 412.944 252.825 451.74 263.3C451.966 263.377 452.206 263.407 452.444 263.388C452.682 263.369 452.914 263.301 453.125 263.189C453.336 263.077 453.522 262.923 453.671 262.737C453.82 262.55 453.929 262.335 453.992 262.104C454.055 261.874 454.07 261.633 454.037 261.396C454.003 261.16 453.921 260.933 453.796 260.729C453.671 260.525 453.506 260.349 453.311 260.212C453.115 260.075 452.894 259.979 452.66 259.93C413.564 249.379 373.235 244.092 332.74 244.21C233.96 244.21 144.59 274.21 79.8899 304.21C15.1899 334.21 -24.84 364.14 -24.9 364.21C-25.0991 364.341 -25.2693 364.512 -25.4001 364.711C-25.531 364.91 -25.6197 365.134 -25.6608 365.369C-25.702 365.604 -25.6947 365.845 -25.6394 366.077C-25.5842 366.309 -25.4821 366.527 -25.3395 366.718C-25.1968 366.909 -25.0167 367.069 -24.81 367.188C-24.6034 367.307 -24.3746 367.382 -24.1377 367.41C-23.9009 367.437 -23.661 367.416 -23.4326 367.347C-23.2043 367.278 -22.9925 367.164 -22.81 367.01V366.91Z" stroke="#946045"/>
</g>
<path d="M271.925 436.039L314.15 398.08C314.496 397.771 314.705 397.337 314.731 396.874C314.758 396.411 314.599 395.956 314.29 395.61C272.65 349.21 221.28 310.86 161.65 281.56C114.37 258.34 61.84 240.76 5.52998 229.29C-42.6628 219.466 -91.7065 214.415 -140.89 214.21C-156.3 214.21 -165.48 214.81 -166.56 214.89C-167.023 214.921 -167.454 215.134 -167.76 215.483C-168.065 215.832 -168.22 216.287 -168.19 216.75L-164.19 273.45C-164.151 273.912 -163.936 274.342 -163.59 274.65C-163.237 274.95 -162.782 275.101 -162.32 275.07C-162.264 275.07 -162.056 275.06 -161.702 275.042C-159.651 274.939 -152.696 274.59 -141.86 274.59C-80.9022 274.886 -20.2507 283.235 38.52 299.42C116.38 321.15 202.62 361.52 269.52 435.98C269.832 436.323 270.267 436.528 270.73 436.55C270.959 436.565 271.188 436.534 271.405 436.458C271.621 436.382 271.82 436.264 271.99 436.11L271.925 436.039ZM310.513 396.645L270.867 432.278C203.557 358.003 117.19 317.731 39.41 296.01C-19.6642 279.723 -80.6324 271.316 -141.91 271.01C-151.393 271.01 -157.917 271.257 -160.861 271.401L-164.616 218.192C-161.16 218 -152.962 217.63 -140.94 217.63C-92.0003 217.851 -43.2014 222.892 4.74998 232.68C60.8 244.1 113.04 261.59 160.03 284.68C218.753 313.527 269.371 351.185 310.513 396.645Z" fill="#946045"/>
<path d="M271.925 436.039L314.15 398.08C314.496 397.771 314.705 397.337 314.731 396.874C314.758 396.411 314.599 395.956 314.29 395.61C272.65 349.21 221.28 310.86 161.65 281.56C114.37 258.34 61.84 240.76 5.52998 229.29C-42.6628 219.466 -91.7065 214.415 -140.89 214.21C-156.3 214.21 -165.48 214.81 -166.56 214.89C-167.023 214.921 -167.454 215.134 -167.76 215.483C-168.065 215.832 -168.22 216.287 -168.19 216.75L-164.19 273.45C-164.151 273.912 -163.936 274.342 -163.59 274.65C-163.237 274.95 -162.782 275.101 -162.32 275.07C-162.264 275.07 -162.056 275.06 -161.702 275.042C-159.651 274.939 -152.696 274.59 -141.86 274.59C-80.9022 274.886 -20.2507 283.235 38.52 299.42C116.38 321.15 202.62 361.52 269.52 435.98C269.832 436.323 270.267 436.528 270.73 436.55C270.959 436.565 271.188 436.534 271.405 436.458C271.621 436.382 271.82 436.264 271.99 436.11L271.925 436.039ZM310.513 396.645L270.867 432.278C203.557 358.003 117.19 317.731 39.41 296.01C-19.6642 279.723 -80.6324 271.316 -141.91 271.01C-151.393 271.01 -157.917 271.257 -160.861 271.401L-164.616 218.192C-161.16 218 -152.962 217.63 -140.94 217.63C-92.0003 217.851 -43.2014 222.892 4.74998 232.68C60.8 244.1 113.04 261.59 160.03 284.68C218.753 313.527 269.371 351.185 310.513 396.645Z" stroke="#946045"/>
<path d="M-164.35 246.68H-163.97C-162.18 246.57 -154.11 246.12 -141.12 246.12C-76.9973 246.41 -13.2038 255.309 48.55 272.58C129.93 295.65 219.98 338.37 290.55 416.97C290.701 417.15 290.887 417.298 291.096 417.404C291.305 417.511 291.534 417.574 291.768 417.59C292.003 417.607 292.238 417.576 292.46 417.499C292.682 417.423 292.886 417.303 293.061 417.145C293.235 416.988 293.377 416.798 293.476 416.585C293.575 416.372 293.631 416.141 293.639 415.907C293.647 415.672 293.608 415.438 293.524 415.219C293.44 414.999 293.313 414.799 293.15 414.63C222.01 335.37 131.32 292.38 49.51 269.21C-12.5526 251.85 -76.666 242.907 -141.11 242.62C-155.315 242.62 -163.698 243.153 -164.523 243.206C-164.566 243.209 -164.588 243.21 -164.59 243.21C-165.045 243.254 -165.464 243.474 -165.759 243.822C-166.054 244.171 -166.2 244.622 -166.168 245.077C-166.135 245.533 -165.926 245.957 -165.584 246.261C-165.243 246.564 -164.796 246.721 -164.34 246.7L-164.35 246.68Z" fill="#946045"/>
<path d="M-164.35 246.68H-163.97C-162.18 246.57 -154.11 246.12 -141.12 246.12C-76.9973 246.41 -13.2038 255.309 48.55 272.58C129.93 295.65 219.98 338.37 290.55 416.97C290.701 417.15 290.887 417.298 291.096 417.404C291.305 417.511 291.534 417.574 291.768 417.59C292.003 417.607 292.238 417.576 292.46 417.499C292.682 417.423 292.886 417.303 293.061 417.145C293.235 416.988 293.377 416.798 293.476 416.585C293.575 416.372 293.631 416.141 293.639 415.907C293.647 415.672 293.608 415.438 293.524 415.219C293.44 414.999 293.313 414.799 293.15 414.63C222.01 335.37 131.32 292.38 49.51 269.21C-12.5526 251.85 -76.666 242.907 -141.11 242.62C-155.315 242.62 -163.698 243.153 -164.523 243.206C-164.566 243.209 -164.588 243.21 -164.59 243.21C-165.045 243.254 -165.464 243.474 -165.759 243.822C-166.054 244.171 -166.2 244.622 -166.168 245.077C-166.135 245.533 -165.926 245.957 -165.584 246.261C-165.243 246.564 -164.796 246.721 -164.34 246.7L-164.35 246.68Z" stroke="#946045"/>
</g>
<path d="M185.48 18.2101C167.08 6.81251 145.969 0.537152 124.33 0.032975C102.692 -0.471202 81.3113 4.8141 62.4001 15.3423C43.4889 25.8705 27.7334 41.2594 16.7629 59.9176C5.79244 78.5757 0.00533137 99.8257 0 121.47V235.47C0 267.694 12.8008 298.598 35.5865 321.384C58.3722 344.169 89.2762 356.97 121.5 356.97C153.724 356.97 184.628 344.169 207.413 321.384C230.199 298.598 243 267.694 243 235.47V150.14C243 149.477 242.737 148.841 242.268 148.372C241.799 147.903 241.163 147.64 240.5 147.64C239.837 147.64 239.201 147.903 238.732 148.372C238.263 148.841 238 149.477 238 150.14V235.47C238 266.368 225.726 296 203.878 317.848C182.03 339.696 152.398 351.97 121.5 351.97C90.6023 351.97 60.97 339.696 39.122 317.848C17.2741 296 5 266.368 5 235.47V121.47C5.00668 100.717 10.557 80.3422 21.0769 62.453C31.5968 44.5637 46.7044 29.8093 64.8376 19.7155C82.9707 9.62177 103.471 4.55504 124.218 5.03931C144.966 5.52358 165.208 11.5413 182.85 22.4701C183.129 22.6541 183.442 22.7803 183.771 22.8411C184.1 22.9019 184.438 22.8962 184.764 22.8243C185.091 22.7523 185.399 22.6156 185.672 22.4222C185.945 22.2288 186.176 21.9827 186.352 21.6984C186.528 21.4141 186.645 21.0974 186.696 20.767C186.748 20.4366 186.732 20.0993 186.651 19.775C186.57 19.4507 186.424 19.146 186.223 18.8789C186.022 18.6118 185.769 18.3878 185.48 18.2201V18.2101Z" fill="#946045"/>
<path d="M185.48 18.2101C167.08 6.81251 145.969 0.537152 124.33 0.032975C102.692 -0.471202 81.3113 4.8141 62.4001 15.3423C43.4889 25.8705 27.7334 41.2594 16.7629 59.9176C5.79244 78.5757 0.00533137 99.8257 0 121.47V235.47C0 267.694 12.8008 298.598 35.5865 321.384C58.3722 344.169 89.2762 356.97 121.5 356.97C153.724 356.97 184.628 344.169 207.413 321.384C230.199 298.598 243 267.694 243 235.47V150.14C243 149.477 242.737 148.841 242.268 148.372C241.799 147.903 241.163 147.64 240.5 147.64C239.837 147.64 239.201 147.903 238.732 148.372C238.263 148.841 238 149.477 238 150.14V235.47C238 266.368 225.726 296 203.878 317.848C182.03 339.696 152.398 351.97 121.5 351.97C90.6023 351.97 60.97 339.696 39.122 317.848C17.2741 296 5 266.368 5 235.47V121.47C5.00668 100.717 10.557 80.3422 21.0769 62.453C31.5968 44.5637 46.7044 29.8093 64.8376 19.7155C82.9707 9.62177 103.471 4.55504 124.218 5.03931C144.966 5.52358 165.208 11.5413 182.85 22.4701C183.129 22.6541 183.442 22.7803 183.771 22.8411C184.1 22.9019 184.438 22.8962 184.764 22.8243C185.091 22.7523 185.399 22.6156 185.672 22.4222C185.945 22.2288 186.176 21.9827 186.352 21.6984C186.528 21.4141 186.645 21.0974 186.696 20.767C186.748 20.4366 186.732 20.0993 186.651 19.775C186.57 19.4507 186.424 19.146 186.223 18.8789C186.022 18.6118 185.769 18.3878 185.48 18.2201V18.2101Z" stroke="#946045"/>
<mask id="mask2_1_54" style="mask-type:luminance" maskUnits="userSpaceOnUse" x="41" y="120" width="161" height="142">
<path d="M201.07 231.67C171.822 238.124 143.493 248.202 116.74 261.67C116.74 261.67 71.52 246.34 41.74 239.42L41.95 159.33C41.95 159.33 77.47 119.11 78.45 124.33C78.5952 125.107 86.0698 124.426 96.7679 123.452C119.954 121.341 158.283 117.85 169.95 124.83C195.45 140.08 201.07 160.08 201.07 160.08V231.67Z" fill="white"/>
<path d="M201.07 231.67C171.822 238.124 143.493 248.202 116.74 261.67C116.74 261.67 71.52 246.34 41.74 239.42L41.95 159.33C41.95 159.33 77.47 119.11 78.45 124.33C78.5952 125.107 86.0698 124.426 96.7679 123.452C119.954 121.341 158.283 117.85 169.95 124.83C195.45 140.08 201.07 160.08 201.07 160.08V231.67Z" stroke="white"/>
</mask>
<g mask="url(#mask2_1_54)">
<path d="M107.96 271.64H197.4C197.863 271.637 198.307 271.452 198.634 271.125C198.962 270.797 199.147 270.353 199.15 269.89V161.42C199.147 160.957 198.962 160.513 198.634 160.186C198.307 159.858 197.863 159.673 197.4 159.67H107.96C107.498 159.678 107.058 159.865 106.731 160.191C106.405 160.518 106.218 160.958 106.21 161.42V269.89C106.218 270.352 106.405 270.792 106.731 271.119C107.058 271.446 107.498 271.632 107.96 271.64ZM109.71 268.21V163.21H195.65V268.21H109.71Z" fill="#946045"/>
<path d="M107.96 271.64H197.4C197.863 271.637 198.307 271.452 198.634 271.125C198.962 270.797 199.147 270.353 199.15 269.89V161.42C199.147 160.957 198.962 160.513 198.634 160.186C198.307 159.858 197.863 159.673 197.4 159.67H107.96C107.498 159.678 107.058 159.865 106.731 160.191C106.405 160.518 106.218 160.958 106.21 161.42V269.89C106.218 270.352 106.405 270.792 106.731 271.119C107.058 271.446 107.498 271.632 107.96 271.64ZM109.71 268.21V163.21H195.65V268.21H109.71Z" stroke="#946045"/>
<path d="M107.96 161.42V163.21H197.42C197.76 163.214 198.094 163.119 198.38 162.935C198.666 162.752 198.893 162.489 199.031 162.178C199.169 161.867 199.213 161.523 199.158 161.187C199.103 160.852 198.951 160.54 198.72 160.29L168.36 126.98C168.196 126.801 167.997 126.658 167.775 126.56C167.553 126.462 167.313 126.411 167.07 126.41H77.65C77.3156 126.407 76.9872 126.499 76.7036 126.676C76.4201 126.853 76.1932 127.108 76.05 127.41C75.9136 127.721 75.8693 128.064 75.9225 128.399C75.9757 128.734 76.1241 129.047 76.35 129.3L106.65 162.6C106.812 162.781 107.012 162.925 107.234 163.023C107.456 163.122 107.697 163.172 107.94 163.17V161.42L109.24 160.25L107.96 161.42ZM193.44 159.67H108.711L81.55 129.87H166.28L193.44 159.67Z" fill="#946045"/>
<path d="M107.96 161.42V163.21H197.42C197.76 163.214 198.094 163.119 198.38 162.935C198.666 162.752 198.893 162.489 199.031 162.178C199.169 161.867 199.213 161.523 199.158 161.187C199.103 160.852 198.951 160.54 198.72 160.29L168.36 126.98C168.196 126.801 167.997 126.658 167.775 126.56C167.553 126.462 167.313 126.411 167.07 126.41H77.65C77.3156 126.407 76.9872 126.499 76.7036 126.676C76.4201 126.853 76.1932 127.108 76.05 127.41C75.9136 127.721 75.8693 128.064 75.9225 128.399C75.9757 128.734 76.1241 129.047 76.35 129.3L106.65 162.6C106.812 162.781 107.012 162.925 107.234 163.023C107.456 163.122 107.697 163.172 107.94 163.17V161.42L109.24 160.25L107.96 161.42ZM193.44 159.67H108.711L81.55 129.87H166.28L193.44 159.67Z" stroke="#946045"/>
<path d="M42.58 161.88V269.88C42.5826 270.343 42.7678 270.787 43.0954 271.115C43.423 271.442 43.8666 271.627 44.33 271.63H107.96C108.426 271.627 108.871 271.44 109.2 271.11C109.362 270.949 109.491 270.758 109.579 270.546C109.666 270.335 109.711 270.109 109.71 269.88V161.88C109.712 161.448 109.551 161.03 109.26 160.71L78.91 126.95C78.7509 126.772 78.557 126.629 78.3403 126.529C78.1235 126.429 77.8885 126.375 77.65 126.37C77.411 126.366 77.1737 126.41 76.9521 126.499C76.7304 126.588 76.5291 126.721 76.36 126.89L43.08 160.65C42.76 160.98 42.5807 161.421 42.58 161.88ZM46.08 268.14V162.603L77.58 130.67L106.24 162.55V268.14H46.08Z" fill="#946045"/>
<path d="M42.58 161.88V269.88C42.5826 270.343 42.7678 270.787 43.0954 271.115C43.423 271.442 43.8666 271.627 44.33 271.63H107.96C108.426 271.627 108.871 271.44 109.2 271.11C109.362 270.949 109.491 270.758 109.579 270.546C109.666 270.335 109.711 270.109 109.71 269.88V161.88C109.712 161.448 109.551 161.03 109.26 160.71L78.91 126.95C78.7509 126.772 78.557 126.629 78.3403 126.529C78.1235 126.429 77.8885 126.375 77.65 126.37C77.411 126.366 77.1737 126.41 76.9521 126.499C76.7304 126.588 76.5291 126.721 76.36 126.89L43.08 160.65C42.76 160.98 42.5807 161.421 42.58 161.88ZM46.08 268.14V162.603L77.58 130.67L106.24 162.55V268.14H46.08Z" stroke="#946045"/>
<path d="M168.65 218.9C168.65 218.603 168.657 218.3 168.664 217.994C168.692 216.73 168.721 215.433 168.27 214.37H137.92C137.465 215.424 137.513 217.345 137.551 218.85C137.561 219.23 137.57 219.584 137.57 219.89C137.57 224.52 141.08 228.62 144 230.17V235.76C141.44 237.35 137.46 241.25 137.57 246.76C137.57 247.085 137.56 247.428 137.55 247.781C137.512 249.089 137.471 250.52 137.92 251.56H168.24C168.819 250.2 169.118 248.738 169.12 247.26C169.12 242.63 166.12 238.85 162.12 235.78V230.21C165.39 228.82 168.65 223.53 168.65 218.9Z" fill="#946045"/>
<path d="M168.65 218.9C168.65 218.603 168.657 218.3 168.664 217.994C168.692 216.73 168.721 215.433 168.27 214.37H137.92C137.465 215.424 137.513 217.345 137.551 218.85C137.561 219.23 137.57 219.584 137.57 219.89C137.57 224.52 141.08 228.62 144 230.17V235.76C141.44 237.35 137.46 241.25 137.57 246.76C137.57 247.085 137.56 247.428 137.55 247.781C137.512 249.089 137.471 250.52 137.92 251.56H168.24C168.819 250.2 169.118 248.738 169.12 247.26C169.12 242.63 166.12 238.85 162.12 235.78V230.21C165.39 228.82 168.65 223.53 168.65 218.9Z" stroke="#946045"/>
<path d="M168.65 218.9H170.4V217.04C170.441 215.895 170.254 214.753 169.85 213.68C169.715 213.365 169.49 213.097 169.204 212.908C168.918 212.72 168.583 212.62 168.24 212.62H137.92C137.577 212.617 137.24 212.716 136.954 212.905C136.667 213.094 136.443 213.364 136.31 213.68C136.071 214.282 135.919 214.915 135.86 215.56C135.8 216.19 135.78 216.83 135.78 217.44V219.89C135.843 222.524 136.704 225.077 138.25 227.21C139.318 228.78 140.677 230.125 142.25 231.177V234.864C140.768 235.932 139.47 237.237 138.41 238.73C136.751 241.002 135.845 243.737 135.82 246.55V246.81V247.06V248.99C135.771 250.101 135.948 251.21 136.34 252.25C136.472 252.568 136.696 252.839 136.983 253.029C137.269 253.22 137.606 253.321 137.95 253.32H168.27C168.613 253.31 168.946 253.2 169.227 253.003C169.508 252.805 169.725 252.53 169.85 252.21C170.519 250.628 170.859 248.927 170.85 247.21C170.822 244.612 170.029 242.08 168.57 239.93C167.262 238.027 165.685 236.326 163.89 234.878V231.264C164.57 230.848 165.195 230.347 165.75 229.77C167.123 228.354 168.228 226.701 169.01 224.89C169.856 223.018 170.312 220.994 170.35 218.94H167.49L168.65 218.9ZM166.91 217.1V218.94H166.85C166.775 221.059 166.163 223.124 165.07 224.94C164.574 225.804 163.969 226.601 163.27 227.31C162.756 227.858 162.141 228.303 161.46 228.62C161.142 228.751 160.87 228.975 160.679 229.262C160.488 229.549 160.388 229.886 160.39 230.23V235.82C160.39 236.088 160.451 236.353 160.569 236.594C160.687 236.835 160.858 237.046 161.07 237.21C162.84 238.524 164.383 240.119 165.64 241.93C166.723 243.514 167.317 245.381 167.35 247.3C167.349 248.165 167.227 249.023 166.988 249.85H139.308C139.279 249.575 139.273 249.297 139.29 249.02V247.09V246.77V246.58C139.313 244.493 139.995 242.466 141.24 240.79C142.22 239.405 143.46 238.223 144.89 237.31C145.143 237.152 145.352 236.933 145.497 236.672C145.643 236.412 145.719 236.118 145.72 235.82V230.21C145.72 229.893 145.633 229.582 145.469 229.311C145.306 229.039 145.071 228.818 144.79 228.67C143.316 227.817 142.054 226.641 141.1 225.23C139.977 223.686 139.346 221.839 139.29 219.93V217.48V217.48C139.29 217.013 139.29 216.554 139.329 216.16H166.878C166.916 216.471 166.926 216.786 166.91 217.1Z" fill="#946045"/>
<path d="M168.65 218.9H170.4V217.04C170.441 215.895 170.254 214.753 169.85 213.68C169.715 213.365 169.49 213.097 169.204 212.908C168.918 212.72 168.583 212.62 168.24 212.62H137.92C137.577 212.617 137.24 212.716 136.954 212.905C136.667 213.094 136.443 213.364 136.31 213.68C136.071 214.282 135.919 214.915 135.86 215.56C135.8 216.19 135.78 216.83 135.78 217.44V219.89C135.843 222.524 136.704 225.077 138.25 227.21C139.318 228.78 140.677 230.125 142.25 231.177V234.864C140.768 235.932 139.47 237.237 138.41 238.73C136.751 241.002 135.845 243.737 135.82 246.55V246.81V247.06V248.99C135.771 250.101 135.948 251.21 136.34 252.25C136.472 252.568 136.696 252.839 136.983 253.029C137.269 253.22 137.606 253.321 137.95 253.32H168.27C168.613 253.31 168.946 253.2 169.227 253.003C169.508 252.805 169.725 252.53 169.85 252.21C170.519 250.628 170.859 248.927 170.85 247.21C170.822 244.612 170.029 242.08 168.57 239.93C167.262 238.027 165.685 236.326 163.89 234.878V231.264C164.57 230.848 165.195 230.347 165.75 229.77C167.123 228.354 168.228 226.701 169.01 224.89C169.856 223.018 170.312 220.994 170.35 218.94H167.49L168.65 218.9ZM166.91 217.1V218.94H166.85C166.775 221.059 166.163 223.124 165.07 224.94C164.574 225.804 163.969 226.601 163.27 227.31C162.756 227.858 162.141 228.303 161.46 228.62C161.142 228.751 160.87 228.975 160.679 229.262C160.488 229.549 160.388 229.886 160.39 230.23V235.82C160.39 236.088 160.451 236.353 160.569 236.594C160.687 236.835 160.858 237.046 161.07 237.21C162.84 238.524 164.383 240.119 165.64 241.93C166.723 243.514 167.317 245.381 167.35 247.3C167.349 248.165 167.227 249.023 166.988 249.85H139.308C139.279 249.575 139.273 249.297 139.29 249.02V247.09V246.77V246.58C139.313 244.493 139.995 242.466 141.24 240.79C142.22 239.405 143.46 238.223 144.89 237.31C145.143 237.152 145.352 236.933 145.497 236.672C145.643 236.412 145.719 236.118 145.72 235.82V230.21C145.72 229.893 145.633 229.582 145.469 229.311C145.306 229.039 145.071 228.818 144.79 228.67C143.316 227.817 142.054 226.641 141.1 225.23C139.977 223.686 139.346 221.839 139.29 219.93V217.48V217.48C139.29 217.013 139.29 216.554 139.329 216.16H166.878C166.916 216.471 166.926 216.786 166.91 217.1Z" stroke="#946045"/>
<path d="M132.89 216.12H173.75C174.214 216.12 174.659 215.936 174.987 215.608C175.316 215.279 175.5 214.834 175.5 214.37C175.5 213.906 175.316 213.461 174.987 213.133C174.659 212.804 174.214 212.62 173.75 212.62H132.89C132.426 212.62 131.981 212.804 131.653 213.133C131.324 213.461 131.14 213.906 131.14 214.37C131.14 214.834 131.324 215.279 131.653 215.608C131.981 215.936 132.426 216.12 132.89 216.12Z" fill="#946045"/>
<path d="M132.89 216.12H173.75C174.214 216.12 174.659 215.936 174.987 215.608C175.316 215.279 175.5 214.834 175.5 214.37C175.5 213.906 175.316 213.461 174.987 213.133C174.659 212.804 174.214 212.62 173.75 212.62H132.89C132.426 212.62 131.981 212.804 131.653 213.133C131.324 213.461 131.14 213.906 131.14 214.37C131.14 214.834 131.324 215.279 131.653 215.608C131.981 215.936 132.426 216.12 132.89 216.12Z" stroke="#946045"/>
<path d="M163.11 214.216L163.13 214.22L163.11 214.215V214.214L164.81 214.54L167.43 200.92C167.481 200.633 167.508 200.342 167.51 200.05C167.51 198.987 167.14 197.957 166.463 197.137C165.786 196.318 164.844 195.76 163.8 195.56C163.516 195.509 163.228 195.482 162.94 195.48C161.876 195.486 160.846 195.861 160.028 196.542C159.209 197.222 158.651 198.165 158.45 199.21L155.65 213.91C155.599 214.162 155.606 214.423 155.67 214.672C155.734 214.922 155.854 215.153 156.02 215.35C156.183 215.548 156.388 215.708 156.619 215.818C156.851 215.929 157.103 215.987 157.36 215.99H163.11C163.517 215.99 163.912 215.849 164.225 215.59C164.539 215.33 164.753 214.97 164.83 214.57L163.11 214.24V214.216ZM161.679 212.49H159.48L161.91 199.88C161.952 199.635 162.084 199.413 162.28 199.26C162.47 199.099 162.711 199.011 162.96 199.01H163.16C163.405 199.055 163.627 199.185 163.786 199.377C163.945 199.569 164.032 199.811 164.03 200.06V200.27L161.679 212.49Z" fill="#946045"/>
<path d="M163.11 214.216L163.13 214.22L163.11 214.215V214.214L164.81 214.54L167.43 200.92C167.481 200.633 167.508 200.342 167.51 200.05C167.51 198.987 167.14 197.957 166.463 197.137C165.786 196.318 164.844 195.76 163.8 195.56C163.516 195.509 163.228 195.482 162.94 195.48C161.876 195.486 160.846 195.861 160.028 196.542C159.209 197.222 158.651 198.165 158.45 199.21L155.65 213.91C155.599 214.162 155.606 214.423 155.67 214.672C155.734 214.922 155.854 215.153 156.02 215.35C156.183 215.548 156.388 215.708 156.619 215.818C156.851 215.929 157.103 215.987 157.36 215.99H163.11C163.517 215.99 163.912 215.849 164.225 215.59C164.539 215.33 164.753 214.97 164.83 214.57L163.11 214.24V214.216ZM161.679 212.49H159.48L161.91 199.88C161.952 199.635 162.084 199.413 162.28 199.26C162.47 199.099 162.711 199.011 162.96 199.01H163.16C163.405 199.055 163.627 199.185 163.786 199.377C163.945 199.569 164.032 199.811 164.03 200.06V200.27L161.679 212.49Z" stroke="#946045"/>
<path d="M73.86 184.96C75.3491 184.959 76.8235 185.255 78.1971 185.83C79.5707 186.405 80.8158 187.248 81.86 188.31C83.9967 190.475 85.1902 193.398 85.18 196.44V249.66H62.54V196.44C62.5298 193.398 63.7233 190.475 65.86 188.31C66.9038 187.248 68.1489 186.405 69.5225 185.829C70.8962 185.254 72.3707 184.959 73.86 184.96ZM73.8207 181.46C71.8815 181.463 69.962 181.85 68.173 182.599C66.3718 183.353 64.739 184.458 63.37 185.85C60.5842 188.669 59.0275 192.477 59.04 196.44V251.44C59.0387 251.67 59.083 251.898 59.1705 252.111C59.258 252.324 59.3868 252.518 59.5496 252.68C59.7123 252.843 59.9058 252.972 60.1187 253.06C60.3316 253.147 60.5598 253.191 60.79 253.19H86.94C87.1694 253.186 87.3957 253.137 87.606 253.045C87.8162 252.954 88.0063 252.821 88.1652 252.656C88.3242 252.49 88.4488 252.295 88.532 252.081C88.6152 251.868 88.6553 251.639 88.65 251.41V196.41C88.6598 192.445 87.0994 188.638 84.31 185.82C82.9423 184.426 81.3098 183.32 79.5083 182.566C77.7069 181.812 75.7728 181.426 73.82 181.43L73.8207 181.46Z" fill="#946045"/>
<path d="M73.86 184.96C75.3491 184.959 76.8235 185.255 78.1971 185.83C79.5707 186.405 80.8158 187.248 81.86 188.31C83.9967 190.475 85.1902 193.398 85.18 196.44V249.66H62.54V196.44C62.5298 193.398 63.7233 190.475 65.86 188.31C66.9038 187.248 68.1489 186.405 69.5225 185.829C70.8962 185.254 72.3707 184.959 73.86 184.96ZM73.8207 181.46C71.8815 181.463 69.962 181.85 68.173 182.599C66.3718 183.353 64.739 184.458 63.37 185.85C60.5842 188.669 59.0275 192.477 59.04 196.44V251.44C59.0387 251.67 59.083 251.898 59.1705 252.111C59.258 252.324 59.3868 252.518 59.5496 252.68C59.7123 252.843 59.9058 252.972 60.1187 253.06C60.3316 253.147 60.5598 253.191 60.79 253.19H86.94C87.1694 253.186 87.3957 253.137 87.606 253.045C87.8162 252.954 88.0063 252.821 88.1652 252.656C88.3242 252.49 88.4488 252.295 88.532 252.081C88.6152 251.868 88.6553 251.639 88.65 251.41V196.41C88.6598 192.445 87.0994 188.638 84.31 185.82C82.9423 184.426 81.3098 183.32 79.5083 182.566C77.7069 181.812 75.7728 181.426 73.82 181.43L73.8207 181.46Z" stroke="#946045"/>
</g>
<path d="M61.2511 69.9738C59.533 70.4122 57.8853 71.0976 56.36 72.0101C54.6513 73.0128 53.1834 74.3782 52.06 76.0101C50.713 78.0931 50.0168 80.5299 50.06 83.0101C50.0611 83.5813 50.0911 84.152 50.15 84.7201L50.1534 84.7197C50.2 85.2976 50.2993 85.8701 50.45 86.4301C51.0671 88.7842 52.4109 90.8837 54.29 92.4301C55.6651 93.544 57.2398 94.3857 58.93 94.9101C61.1711 95.5993 63.5055 95.9366 65.85 95.9101H66.65H97.85C100.576 95.828 103.261 95.2237 105.76 94.1301C108.3 93.0588 110.468 91.2611 111.991 88.9627C113.498 86.6878 114.307 84.0225 114.32 81.2949C114.835 77.4225 114.129 73.4845 112.3 70.0301C111.317 68.3068 109.973 66.8161 108.36 65.6601C106.346 64.2614 104.06 63.3038 101.65 62.8501H101.45L96.2119 62.3979C95.4219 61.1179 94.4593 59.9508 93.35 58.9301C90.3463 56.0849 86.4225 54.4103 82.29 54.2101V54.2101C81.735 54.1566 81.1776 54.1332 80.62 54.1401C77.9838 54.1296 75.3666 54.5867 72.89 55.4901C69.3052 56.7794 66.2893 59.2899 64.3712 62.5808L64.37 62.5801C64.37 62.5801 63.71 63.6901 62.97 65.2801C62.2489 66.7874 61.6735 68.3591 61.2511 69.9738ZM64.45 71.8201L63.5726 71.6274L64.42 71.7801C64.7823 70.0495 65.3567 68.3702 66.13 66.7801C66.46 66.0601 66.77 65.4601 67 65.0401L67.27 64.5501L67.34 64.4301C68.8491 61.8274 71.2345 59.846 74.07 58.8401C76.152 58.0791 78.3533 57.6964 80.57 57.7101H81.57H81.83H81.88H81.89H81.9H81.99C85.3136 57.8635 88.4718 59.2048 90.89 61.4901C91.6386 62.2108 92.309 63.0086 92.89 63.8701C93.0621 64.1101 93.2191 64.3606 93.36 64.6201L93.47 64.8001L93.4776 64.7963C93.6062 65.0659 93.802 65.2979 94.0463 65.4699C94.2955 65.6454 94.5864 65.7524 94.89 65.7801L100.946 66.3037C102.829 66.6661 104.618 67.4137 106.2 68.5001C107.959 69.7706 109.286 71.5509 110 73.6001C110.569 75.25 110.854 76.9848 110.84 78.7301C110.84 79.3901 110.84 79.9301 110.77 80.3001V80.7201V80.8201V81.0501C110.781 83.4069 110.038 85.7055 108.65 87.6101C107.783 88.7232 106.702 89.6515 105.47 90.3401C103.848 91.2529 102.083 91.8851 100.25 92.2101C99.5 92.3401 98.87 92.4101 98.44 92.4401H97.94H97.8H65.86C63.3784 92.5188 60.909 92.0617 58.62 91.1001C56.7093 90.2736 55.171 88.7709 54.3 86.8801C54.0411 86.3154 53.853 85.7209 53.74 85.1101C53.7021 84.9454 53.6754 84.7784 53.66 84.6101V84.5001V84.3601C53.6096 83.9152 53.5829 83.4679 53.58 83.0201C53.5453 81.2493 54.0397 79.5083 55 78.0201C56.2492 76.2612 57.9879 74.9084 60 74.1301C60.7103 73.8258 61.4423 73.5751 62.19 73.3801C62.46 73.3101 62.69 73.2601 62.83 73.2401H62.99C63.3517 73.1868 63.6874 73.0209 63.9495 72.766C64.2115 72.5111 64.3867 72.1802 64.45 71.8201ZM93.4738 64.7882C93.4738 64.7882 93.4738 64.7882 93.4738 64.7883L93.47 64.7901L93.4738 64.7882Z" fill="#946045"/>
<path d="M61.2511 69.9738C59.533 70.4122 57.8853 71.0976 56.36 72.0101C54.6513 73.0128 53.1834 74.3782 52.06 76.0101C50.713 78.0931 50.0168 80.5299 50.06 83.0101C50.0611 83.5813 50.0911 84.152 50.15 84.7201L50.1534 84.7197C50.2 85.2976 50.2993 85.8701 50.45 86.4301C51.0671 88.7842 52.4109 90.8837 54.29 92.4301C55.6651 93.544 57.2398 94.3857 58.93 94.9101C61.1711 95.5993 63.5055 95.9366 65.85 95.9101H66.65H97.85C100.576 95.828 103.261 95.2237 105.76 94.1301C108.3 93.0588 110.468 91.2611 111.991 88.9627C113.498 86.6878 114.307 84.0225 114.32 81.2949C114.835 77.4225 114.129 73.4845 112.3 70.0301C111.317 68.3068 109.973 66.8161 108.36 65.6601C106.346 64.2614 104.06 63.3038 101.65 62.8501H101.45L96.2119 62.3979C95.4219 61.1179 94.4593 59.9508 93.35 58.9301C90.3463 56.0849 86.4225 54.4103 82.29 54.2101V54.2101C81.735 54.1566 81.1776 54.1332 80.62 54.1401C77.9838 54.1296 75.3666 54.5867 72.89 55.4901C69.3052 56.7794 66.2893 59.2899 64.3712 62.5808L64.37 62.5801C64.37 62.5801 63.71 63.6901 62.97 65.2801C62.2489 66.7874 61.6735 68.3591 61.2511 69.9738ZM64.45 71.8201L63.5726 71.6274L64.42 71.7801C64.7823 70.0495 65.3567 68.3702 66.13 66.7801C66.46 66.0601 66.77 65.4601 67 65.0401L67.27 64.5501L67.34 64.4301C68.8491 61.8274 71.2345 59.846 74.07 58.8401C76.152 58.0791 78.3533 57.6964 80.57 57.7101H81.57H81.83H81.88H81.89H81.9H81.99C85.3136 57.8635 88.4718 59.2048 90.89 61.4901C91.6386 62.2108 92.309 63.0086 92.89 63.8701C93.0621 64.1101 93.2191 64.3606 93.36 64.6201L93.47 64.8001L93.4776 64.7963C93.6062 65.0659 93.802 65.2979 94.0463 65.4699C94.2955 65.6454 94.5864 65.7524 94.89 65.7801L100.946 66.3037C102.829 66.6661 104.618 67.4137 106.2 68.5001C107.959 69.7706 109.286 71.5509 110 73.6001C110.569 75.25 110.854 76.9848 110.84 78.7301C110.84 79.3901 110.84 79.9301 110.77 80.3001V80.7201V80.8201V81.0501C110.781 83.4069 110.038 85.7055 108.65 87.6101C107.783 88.7232 106.702 89.6515 105.47 90.3401C103.848 91.2529 102.083 91.8851 100.25 92.2101C99.5 92.3401 98.87 92.4101 98.44 92.4401H97.94H97.8H65.86C63.3784 92.5188 60.909 92.0617 58.62 91.1001C56.7093 90.2736 55.171 88.7709 54.3 86.8801C54.0411 86.3154 53.853 85.7209 53.74 85.1101C53.7021 84.9454 53.6754 84.7784 53.66 84.6101V84.5001V84.3601C53.6096 83.9152 53.5829 83.4679 53.58 83.0201C53.5453 81.2493 54.0397 79.5083 55 78.0201C56.2492 76.2612 57.9879 74.9084 60 74.1301C60.7103 73.8258 61.4423 73.5751 62.19 73.3801C62.46 73.3101 62.69 73.2601 62.83 73.2401H62.99C63.3517 73.1868 63.6874 73.0209 63.9495 72.766C64.2115 72.5111 64.3867 72.1802 64.45 71.8201ZM93.4738 64.7882C93.4738 64.7882 93.4738 64.7882 93.4738 64.7883L93.47 64.7901L93.4738 64.7882Z" stroke="#946045"/>
</svg>
