<svg id="Layer_1" data-name="Layer 1" xmlns="http://www.w3.org/2000/svg" xmlns:xlink="http://www.w3.org/1999/xlink" viewBox="0 0 830 862"><defs>
<style>.cls-1{fill:none;}.cls-2{fill:#946045;}.cls-3{clip-path:url(#clip-path);}.cls-4{clip-path:url(#clip-path-2);}.cls-5{clip-path:url(#clip-path-3);}</style>
<clipPath id="clip-path">
<path class="cls-1" d="M489.52,190.09A119,119,0,0,0,307.85,291.26v114a119,119,0,0,0,238,0V319.93"/>
</clipPath>
<clipPath id="clip-path-2">
<path class="cls-1" d="M408.57,426.32s42.43,19.42,90.91,44.39L677,463.24l-3.87-103.93-172.09,3Z"/>
</clipPath>
<clipPath id="clip-path-3">
<path class="cls-1" d="M506.42,401.46a360.1,360.1,0,0,0-84.33,30s-45.22-15.33-75-22.25l.21-80.09s35.52-40.22,36.5-35c.46,2.46,74.45-9.7,91.5.5,25.5,15.25,31.12,35.25,31.12,35.25Z"/></clipPath>
</defs>
<path class="cls-2" d="M320.27,683.28c0-.76.43-1.16,1.3-1.16s1.3.4,1.3,1.16v.47c0,4,3.19,6.66,9.12,6.62s8.54-2.21,8.86-5.35c.33-3.3-1.91-4.67-5-5.61l-9.23-2.93c-3.87-1.23-5.82-3.33-5.75-7.06.07-4.63,3.94-7.09,10.71-7.09,8.07,0,11,3.4,11,7.64v.47c0,.65-.36,1.08-1.26,1.08s-1.31-.43-1.31-1.08v-.29c0-3.33-3.29-5.5-8.32-5.5-4.77,0-8.28,1.37-8.32,4.77,0,2.86,1.85,4.09,4.56,5l9.73,3.07c4.42,1.41,5.9,4,5.68,7.49-.29,4.52-3.62,7.74-11.32,7.74-9.91,0-11.83-5.32-11.83-8.43Z"/>
<path class="cls-2" d="M352.25,681.15v-7.31c0-8.11,6.33-11.54,12.91-11.54s12.95,3.43,12.95,11.54v7.31c0,8.06-6.33,11.57-12.95,11.57S352.25,689.21,352.25,681.15Zm23.29-.58v-6.12c0-7.56-5.71-9.69-10.38-9.69s-10.35,2.13-10.35,9.69v6.12c0,7.56,5.68,9.69,10.35,9.69S375.54,688.13,375.54,680.57Z"/>
<path class="cls-2" d="M387.91,663.89c0-1.09.51-1.56,1.52-1.56s1.3.26,1.7,1.2l10.93,24.74L413,663.53c.4-.91.8-1.2,1.66-1.2a1.36,1.36,0,0,1,1.56,1.56v27.64c0,.79-.4,1.19-1.27,1.19s-1.26-.4-1.26-1.19v-15c0-2.93,0-6.33.32-9.11h-.14l-10.28,23.48a1.41,1.41,0,0,1-1.51.94,1.47,1.47,0,0,1-1.52-.94L390.26,667.4h-.14c.29,2.78.32,6.18.32,9.11v15c0,.79-.4,1.19-1.26,1.19s-1.27-.4-1.27-1.19Z"/>
<path class="cls-2" d="M427,691.49v-28c0-.84.33-1.2,1.27-1.2s1.27.36,1.27,1.2v28c0,.83-.29,1.23-1.27,1.23S427,692.32,427,691.49Z"/>
<path class="cls-2" d="M440.28,664.61c0-1.3.55-1.92,2-1.92h10c6.87,0,10.74,3.66,10.74,11.29v7.17c0,7.3-3.79,11.17-10.74,11.17h-10c-1.44,0-2-.61-2-1.91Zm2.61,25.29h9.37c4.41,0,8.14-2.21,8.14-9.44v-5.79c0-7.56-3.73-9.51-8.14-9.51h-9.37Z"/>
<path class="cls-2" d="M496.42,691.13c.37.8.08,1.27-.83,1.52s-1.3-.11-1.63-.9l-2.89-6.88H475.84l-3,7.27c-.25.62-.79.76-1.63.4a1.06,1.06,0,0,1-.65-1.52l11.69-27.67c.29-.76.5-1,1.3-1s1,.26,1.3,1Zm-19.57-8.68h13.21l-3.48-8.32c-.79-1.92-2.06-4.92-3-7.42h-.1c-.94,2.5-2.24,5.5-3.08,7.42Z"/>
<path class="cls-2" d="M505.14,663.89c0-1.09.51-1.56,1.52-1.56s1.3.26,1.7,1.2l10.93,24.74,10.92-24.74c.4-.91.8-1.2,1.66-1.2a1.36,1.36,0,0,1,1.56,1.56v27.64c0,.79-.4,1.19-1.27,1.19s-1.26-.4-1.26-1.19v-15c0-2.93,0-6.33.32-9.11h-.14L520.8,690.88a1.41,1.41,0,0,1-1.51.94,1.49,1.49,0,0,1-1.53-.94L507.49,667.4h-.14c.29,2.78.32,6.18.32,9.11v15c0,.79-.4,1.19-1.26,1.19s-1.27-.4-1.27-1.19Z"/>
<path class="cls-2" d="M370.3,621c1.74,0,2.51.9,2.51,3s-.77,3-2.51,3H317.79c-1.73,0-2.57-.9-2.57-3s.84-3,2.57-3h23V607.13c0-1.93,1-2.83,3.22-2.83s3.21.9,3.21,2.83V621Zm-47.42-15.64c-2,1.1-3.16,1.16-4.51-.71s-1.22-3.47.45-4.43l21.95-12.55V572.52c0-1.93,1-2.77,3.21-2.77s3.22.84,3.22,2.77v15.12l22,12.55c1.67,1,1.73,2.57.38,4.43s-2.51,1.81-4.5.71L344,593.17Z"/>
<path class="cls-2" d="M434.51,623.74c0,2.12-1,3-3.09,3h-29.6c-2.06,0-3.09-.84-3.09-3V574.19c0-2.12,1-3,3.09-3h29.6c2.06,0,3.09.9,3.09,3Zm-29.35-2.83h23V577h-23Zm39.32,4.82V572.32c0-1.93,1.09-2.83,3.28-2.83s3.22.9,3.22,2.83v53.41c0,2-1.1,2.83-3.22,2.83S444.48,627.73,444.48,625.73Z"/>
<path class="cls-2" d="M512.42,600.32H483.27c-2,0-3-.91-3-2.77V574.38c0-2.06,1-3,3-3h27.8c1.67,0,2.51.9,2.51,3s-.84,3-2.51,3H486.75v17.12h25.67c1.74,0,2.57,1,2.57,3S514.16,600.32,512.42,600.32Zm14.35,5c2.19,0,3,.84,3,3V625.6c0,2.06-.83,3-2.89,3H486.55c-2,0-2.89-.9-2.89-3V608.36c0-2.19.9-3,3.09-3Zm-3.22,17.5V611.06H489.9v11.77Zm12.35-40.34c1.81,0,2.58,1,2.58,3s-.77,3.09-2.58,3.09h-6.11v11.46c0,1.93-1,2.76-3.21,2.76s-3.22-.83-3.22-2.76v-27.8c0-1.93,1.16-2.77,3.22-2.77s3.21.84,3.21,2.77v10.23Z"/>
<path class="cls-2" d="M505.74,218.68a1.22,1.22,0,0,0,.63-.76,1.24,1.24,0,0,0-.11-1,12.94,12.94,0,0,0-3.33-3.92,9.09,9.09,0,0,0-4.41-1.81,12.19,12.19,0,0,0-5.11.51,1.22,1.22,0,0,0-.78.71,1.21,1.21,0,0,0,0,1,11.56,11.56,0,0,0,3.27,3.91A9.4,9.4,0,0,0,505.74,218.68Z"/>
<path class="cls-2" d="M511.35,229a1.25,1.25,0,0,0,.52-1.73,12.94,12.94,0,0,0-3.33-3.92,9.18,9.18,0,0,0-4.41-1.81,12.35,12.35,0,0,0-5.11.51,1.29,1.29,0,0,0-.79.71,1.24,1.24,0,0,0,0,1.05,11.47,11.47,0,0,0,3.28,3.91A9.38,9.38,0,0,0,511.35,229Z"/>
<path class="cls-2" d="M516.1,239a1.2,1.2,0,0,0,.63-.75,1.24,1.24,0,0,0-.11-1,13.05,13.05,0,0,0-3.32-3.92,9.26,9.26,0,0,0-4.42-1.81,12.14,12.14,0,0,0-5.1.51,1.25,1.25,0,0,0-.75,1.77,11.61,11.61,0,0,0,3.27,3.9A9.38,9.38,0,0,0,516.1,239Z"/>
<path class="cls-2" d="M522.22,248.3a1.24,1.24,0,0,0,.52-.84,1.25,1.25,0,0,0-.26-1A14.5,14.5,0,0,0,520,244a9.59,9.59,0,0,0-5.2-2,11.89,11.89,0,0,0-5.76,1.25,1.3,1.3,0,0,0-.68.82,1.28,1.28,0,0,0,.2,1,11.79,11.79,0,0,0,2.41,2.47C514.39,250.2,519,250.58,522.22,248.3Z"/><path class="cls-2" d="M525.3,258.3a1.24,1.24,0,0,0,.25-1.8A14,14,0,0,0,523,254a9.46,9.46,0,0,0-5.21-2,11.66,11.66,0,0,0-5.75,1.25,1.25,1.25,0,0,0-.68.81,1.27,1.27,0,0,0,.2,1.05,11.64,11.64,0,0,0,2.4,2.45C517.46,260.19,522.05,260.58,525.3,258.3Z"/>
<path class="cls-2" d="M528,264.27a9.43,9.43,0,0,0-5.2-2,11.78,11.78,0,0,0-5.76,1.25,1.26,1.26,0,0,0-.67.82,1.28,1.28,0,0,0,.19,1,11.5,11.5,0,0,0,2.41,2.46c3.46,2.62,8.05,3,11.3.72a1.25,1.25,0,0,0,.51-.84,1.21,1.21,0,0,0-.26-1A14.16,14.16,0,0,0,528,264.27Z"/>
<path class="cls-2" d="M512.1,212.32a1.25,1.25,0,0,0,1-.31,18.1,18.1,0,0,0,2.28-2.45,12,12,0,0,0,2.22-4.75,12.28,12.28,0,0,0-.24-5.77,1.21,1.21,0,0,0-.66-.8,1.24,1.24,0,0,0-1,0,10.73,10.73,0,0,0-4.17,3.26,8.6,8.6,0,0,0-.24,10.31A1.25,1.25,0,0,0,512.1,212.32Z"/>
<path class="cls-2" d="M516.86,212.16a8.89,8.89,0,0,0-1.83,5,8.63,8.63,0,0,0,1.59,5.32,1.26,1.26,0,0,0,.88.53,1.25,1.25,0,0,0,1-.32,18,18,0,0,0,2.27-2.44,11.88,11.88,0,0,0,2.23-4.75,12.45,12.45,0,0,0-.24-5.78,1.26,1.26,0,0,0-.66-.8,1.24,1.24,0,0,0-1.05,0A10.66,10.66,0,0,0,516.86,212.16Z"/>
<path class="cls-2" d="M521,228a8.73,8.73,0,0,0,1.6,5.32,1.25,1.25,0,0,0,1.86.22,17.45,17.45,0,0,0,2.27-2.45,11.75,11.75,0,0,0,2.23-4.75,12.28,12.28,0,0,0-.24-5.77,1.25,1.25,0,0,0-.66-.81,1.28,1.28,0,0,0-1,0,10.75,10.75,0,0,0-4.17,3.26A8.93,8.93,0,0,0,521,228Z"/>
<path class="cls-2" d="M527.91,234.27a8.53,8.53,0,0,0-.83,9.09,1.25,1.25,0,0,0,.79.65,1.23,1.23,0,0,0,1-.16,15.82,15.82,0,0,0,3.93-3.57,11.59,11.59,0,0,0,2.21-8.62,1.24,1.24,0,0,0-.54-.89,1.22,1.22,0,0,0-1-.17A10.41,10.41,0,0,0,527.91,234.27Z"/>
<path class="cls-2" d="M531.84,244a8.53,8.53,0,0,0-.83,9.1,1.23,1.23,0,0,0,1.8.49,15.7,15.7,0,0,0,3.94-3.57,11.62,11.62,0,0,0,2.21-8.62,1.24,1.24,0,0,0-1.58-1.06A10.42,10.42,0,0,0,531.84,244Z"/>
<path class="cls-2" d="M535.57,253.66a8.57,8.57,0,0,0-.83,9.1,1.25,1.25,0,0,0,.79.65,1.27,1.27,0,0,0,1-.16,15.89,15.89,0,0,0,3.94-3.57,11.59,11.59,0,0,0,2.21-8.62,1.26,1.26,0,0,0-.54-.9,1.29,1.29,0,0,0-1-.17A10.46,10.46,0,0,0,535.57,253.66Z"/>
<path class="cls-2" d="M507,210.27a1.36,1.36,0,0,0-1.86-.45,1.35,1.35,0,0,0-.45,1.85s.47.79,1.34,2.29c6.07,10.49,25.13,38.35,33.82,81.28a1.35,1.35,0,0,0,2.64-.54C532.35,245,507,210.34,507,210.27Z"/>
<g class="cls-3">
<g class="cls-4">
<path class="cls-2" d="M750.12,458.82l.46-1.69a425.68,425.68,0,0,0-112.16-14.69c-93,0-177.72,28.22-239.46,56.58a698.53,698.53,0,0,0-73.53,39.17c-17.53,10.77-27.45,18.08-28,18.46l1,1.4,1.4-1-34.05-45.5-1.4,1,1,1.4c2.38-1.78,61.13-45.39,151.58-80.69,53.29-20.8,106.67-34.43,158.66-40.52A536.07,536.07,0,0,1,638,389.06a480.85,480.85,0,0,1,126.62,16.62L765,404l-1.68-.46-14.93,54.83,1.69.46.46-1.69-.46,1.69,1.68.46,14.93-54.83a1.75,1.75,0,0,0-1.23-2.15A484.11,484.11,0,0,0,638,385.56a538.6,538.6,0,0,0-62.62,3.71C523,395.39,469.36,409.1,415.82,430c-90.88,35.47-149.86,79.24-152.4,81.15a1.76,1.76,0,0,0-.69,1.15,1.82,1.82,0,0,0,.33,1.3l34.06,45.49a1.75,1.75,0,0,0,2.45.36c.4-.31,10.27-7.57,27.69-18.28C379.55,509,500,445.92,638.42,445.94a422.2,422.2,0,0,1,111.24,14.57,1.74,1.74,0,0,0,1.32-.17,1.78,1.78,0,0,0,.82-1.06Z"/>
<path class="cls-2" d="M282.54,536.7l.45-.33c4.71-3.46,46-33.21,109.83-62.07s150.27-56.84,245.27-56.84a452.16,452.16,0,0,1,119,15.63,1.75,1.75,0,1,0,.92-3.37A455.18,455.18,0,0,0,638.09,414c-98.78,0-188.15,30-252.85,60s-104.73,59.93-104.79,60a1.75,1.75,0,1,0,2.09,2.8Z"/>
</g>
<path class="cls-2" d="M576.11,604.56l1.3-1.17C509.93,528.27,423,487.65,344.76,465.8a695.25,695.25,0,0,0-181.32-25c-12.8,0-20.21.45-20.7.49l.12,1.75,1.75-.13-4-56.69-1.75.12.12,1.75c1-.07,10.11-.67,25.43-.67a745.22,745.22,0,0,1,145.69,15.05c56.05,11.42,108.29,28.91,155.28,52,59.28,29.12,110.3,67.22,151.65,113.26l1.3-1.17-1.16-1.3-42.28,38,1.17,1.31,1.3-1.17-1.3,1.17,1.17,1.3,42.27-38a1.75,1.75,0,0,0,.14-2.47C578,519,526.63,480.65,467,451.35c-47.28-23.22-99.81-40.8-156.12-52.27A748.61,748.61,0,0,0,164.46,384c-15.41,0-24.59.6-25.67.68a1.75,1.75,0,0,0-1.63,1.86l4,56.7a1.81,1.81,0,0,0,.6,1.2,1.78,1.78,0,0,0,1.27.42c.38,0,7.75-.48,20.46-.48a692.05,692.05,0,0,1,180.38,24.83c77.86,21.73,164.1,62.1,231,136.56a1.75,1.75,0,0,0,1.21.57,1.71,1.71,0,0,0,1.26-.44Z"/>
<path class="cls-2" d="M141,416.47l.38,0c1.79-.11,9.86-.56,22.85-.56a716.22,716.22,0,0,1,189.67,26.46c81.38,23.07,171.43,65.79,242,144.39a1.75,1.75,0,1,0,2.6-2.34C527.36,505.16,436.67,462.17,354.86,439a719.54,719.54,0,0,0-190.62-26.59c-14.94,0-23.44.59-23.48.59a1.75,1.75,0,0,0,.25,3.49Z"/>
</g>
<path class="cls-2" d="M490.83,188A121.5,121.5,0,0,0,305.35,291.26v114a121.5,121.5,0,0,0,243,0V319.93a2.5,2.5,0,1,0-5,0v85.33a116.5,116.5,0,1,1-233,0v-114a116.5,116.5,0,0,1,177.85-99,2.5,2.5,0,1,0,2.63-4.25Z"/>
<g class="cls-5">
<path class="cls-2" d="M413.31,439.68v1.75h89.44a1.76,1.76,0,0,0,1.75-1.75V331.21a1.76,1.76,0,0,0-1.75-1.75H413.31a1.78,1.78,0,0,0-1.75,1.75V439.68a1.78,1.78,0,0,0,1.75,1.75v-1.75h1.75V333H501v105H413.31v1.75h0Z"/>
<path class="cls-2" d="M413.31,331.21V333h89.46a1.74,1.74,0,0,0,1.3-2.92l-30.36-33.31a1.76,1.76,0,0,0-1.29-.57H383a1.75,1.75,0,0,0-1.6,1,1.77,1.77,0,0,0,.3,1.89L412,332.39a1.72,1.72,0,0,0,1.29.57v-1.75l1.3-1.17-27.69-30.38h84.73l27.16,29.8h-85.5v1.75l1.3-1.17Z"/>
<path class="cls-2" d="M349.68,331.67h-1.75v108a1.76,1.76,0,0,0,1.75,1.75h63.63a1.77,1.77,0,0,0,1.24-.52,1.72,1.72,0,0,0,.51-1.23v-108a1.73,1.73,0,0,0-.45-1.17l-30.35-33.76a1.74,1.74,0,0,0-1.26-.58,1.78,1.78,0,0,0-1.29.52l-33.28,33.76a1.77,1.77,0,0,0-.5,1.23h1.75l1.25,1.23,32-32.44,28.66,31.88V437.93H351.43V331.67h-1.75l1.25,1.23Z"/>
<path class="cls-2" d="M474,388.69c0-1.53.18-3.21-.38-4.53H443.27c-.57,1.32-.35,4-.35,5.52,0,4.63,3.51,8.73,6.43,10.28v5.59c-2.56,1.59-6.54,5.49-6.43,11,0,1.53-.22,3.48.35,4.8h30.32a11,11,0,0,0,.88-4.3c0-4.63-3-8.41-7-11.48V400C470.74,398.61,474,393.32,474,388.69Z"/>
<path class="cls-2" d="M474,388.69h1.75c0-.55,0-1.19,0-1.86a8.66,8.66,0,0,0-.55-3.36,1.75,1.75,0,0,0-1.61-1.06H443.27a1.73,1.73,0,0,0-1.61,1.06,6.77,6.77,0,0,0-.45,1.88c-.06.63-.08,1.27-.08,1.88,0,.95,0,1.85,0,2.45A13,13,0,0,0,443.6,397a14.77,14.77,0,0,0,4.93,4.54l.82-1.55H447.6v5.59h1.75l-.93-1.48a16.63,16.63,0,0,0-4.66,4.42,13.47,13.47,0,0,0-2.59,7.82v.26h0v.25c0,.55,0,1.22,0,1.93a8.23,8.23,0,0,0,.52,3.26,1.74,1.74,0,0,0,1.61,1.07h30.32A1.75,1.75,0,0,0,475.2,422a12.66,12.66,0,0,0,1-5,13.21,13.21,0,0,0-2.28-7.28,23.81,23.81,0,0,0-5.36-5.58l-1.07,1.38h1.75V400h-1.75l.67,1.62a9.33,9.33,0,0,0,2.94-2.06,16.29,16.29,0,0,0,3.26-4.88,15.14,15.14,0,0,0,1.34-5.95h-3.5a12.49,12.49,0,0,1-1.78,6,11.6,11.6,0,0,1-1.8,2.37,5.89,5.89,0,0,1-1.81,1.31,1.73,1.73,0,0,0-1.07,1.61v5.59a1.76,1.76,0,0,0,.68,1.39,20.27,20.27,0,0,1,4.57,4.72,9.81,9.81,0,0,1,1.71,5.37,9.21,9.21,0,0,1-.74,3.61l1.61.69v-1.75H443.27v1.75l1.61-.69a5.16,5.16,0,0,1-.24-1.89c0-.6,0-1.26,0-1.93v-.32h0v-.19a9.89,9.89,0,0,1,1.95-5.79,13.11,13.11,0,0,1,3.65-3.48,1.76,1.76,0,0,0,.83-1.49V400a1.74,1.74,0,0,0-.93-1.54,11.27,11.27,0,0,1-3.69-3.44,9.48,9.48,0,0,1-1.81-5.3c0-.73,0-1.6,0-2.45,0-.54,0-1.07.06-1.5a3.49,3.49,0,0,1,.19-.88l-1.61-.69v1.75h30.32v-1.75l-1.61.69a5.44,5.44,0,0,1,.27,2c0,.57,0,1.19,0,1.86Z"/>
<path class="cls-2" d="M438.24,385.91H479.1a1.75,1.75,0,0,0,0-3.5H438.24a1.75,1.75,0,0,0,0,3.5"/>
<path class="cls-2" d="M468.44,384l1.72.33,2.62-13.62a5.12,5.12,0,0,0,.08-.87,4.57,4.57,0,0,0-3.71-4.49h0a5,5,0,0,0-.86-.08A4.6,4.6,0,0,0,463.8,369L461,383.7a1.71,1.71,0,0,0,.37,1.44,1.76,1.76,0,0,0,1.34.64h5.75a1.75,1.75,0,0,0,1.72-1.42l-1.72-.33v-1.75h-3.63l2.43-12.61a1,1,0,0,1,.37-.62,1.06,1.06,0,0,1,.68-.25l.2,0h0a1.06,1.06,0,0,1,.87,1.05l0,.21-2.62,13.62,1.72.33v0Z"/>
<path class="cls-2" d="M379.21,353v1.75a11.21,11.21,0,0,1,8,3.35,11.52,11.52,0,0,1,3.32,8.13v53.22H367.89V366.23a11.52,11.52,0,0,1,3.32-8.13,11.2,11.2,0,0,1,8-3.35v-3.5a14.69,14.69,0,0,0-10.49,4.39,15,15,0,0,0-4.33,10.59v55a1.74,1.74,0,0,0,1.75,1.75h26.15A1.74,1.74,0,0,0,394,421.2v-55a15,15,0,0,0-4.34-10.59,14.65,14.65,0,0,0-10.49-4.39Z"/>
</g>
<path class="cls-2" d="M368.07,241.23l-.27-1.73a18.38,18.38,0,0,0-6.09,2.3,13.54,13.54,0,0,0-4.3,4,12.49,12.49,0,0,0-2,7,16.91,16.91,0,0,0,.09,1.71l1.74-.19-1.75,0a9.53,9.53,0,0,0,.31,1.9,11.57,11.57,0,0,0,3.84,6,13.93,13.93,0,0,0,4.64,2.48,22.67,22.67,0,0,0,6.92,1H372l0-1.75v1.75h31.2a21.33,21.33,0,0,0,7.91-1.78A14,14,0,0,0,419.67,251l-1.75-.07,1.73.3a18.78,18.78,0,0,0-2-11.41,13.78,13.78,0,0,0-3.94-4.37,17.41,17.41,0,0,0-6.71-2.81l-.2,0-6.14-.53-.15,1.75,1.57-.77a16.46,16.46,0,0,0-3.38-4.37A17.3,17.3,0,0,0,387.64,224l-.1,1.75.2-1.74a15.41,15.41,0,0,0-1.77-.08,22.3,22.3,0,0,0-7.73,1.35,16.21,16.21,0,0,0-8.53,7.11l1.52.88-1.51-.9s-.66,1.11-1.4,2.7a26.29,26.29,0,0,0-2,5.88l1.73.31-.27-1.73.27,1.73,1.72.31a21.51,21.51,0,0,1,1.71-5c.33-.72.64-1.32.87-1.74l.27-.49.07-.12,0,0h0v0a12.68,12.68,0,0,1,6.73-5.59,18.6,18.6,0,0,1,6.5-1.13c.45,0,.8,0,1,0l.26,0h.07l.06-.6-.07.6h0l.06-.6-.07.6h.11a13.89,13.89,0,0,1,8.9,3.78,14.76,14.76,0,0,1,2,2.38,7.11,7.11,0,0,1,.47.75l.11.18,0,0h0l.85-.42-.85.41h0l.85-.42-.85.41a1.74,1.74,0,0,0,1.42,1l6.13.53.15-1.75-.35,1.72a13.93,13.93,0,0,1,5.38,2.22,10.59,10.59,0,0,1,3.8,5.1,15.36,15.36,0,0,1,.84,5.13c0,.66,0,1.2-.07,1.57,0,.19,0,.33,0,.42l0,.1h0l.4.07-.4-.07h0l.4.07-.4-.07,0,.23A11.05,11.05,0,0,1,414,257.4a10.57,10.57,0,0,1-3.18,2.73A16.53,16.53,0,0,1,405.6,262c-.75.13-1.38.2-1.81.23l-.5,0h-.14v0h0v0H371.21a17.28,17.28,0,0,1-7.24-1.34,8.45,8.45,0,0,1-4.32-4.22,7.54,7.54,0,0,1-.56-1.77,3.76,3.76,0,0,1-.08-.5v-.11h0v-.14a12.64,12.64,0,0,1-.08-1.34,8.9,8.9,0,0,1,1.42-5,11,11,0,0,1,5-3.89,15.47,15.47,0,0,1,2.19-.75c.27-.07.5-.12.64-.14l.16,0h0v0h0v0a1.74,1.74,0,0,0,1.46-1.42Z"/>
</svg>